<svg xmlns="http://www.w3.org/2000/svg" fill="none" viewBox="0 0 161 92" height="92" width="161">
<path fill="white" d="M26.6869 36.8591C29.8722 36.8591 33.0082 38.0023 33.0082 41.3795C33.0082 44.0225 30.5702 45.5328 29.1348 45.9104C31.9662 46.2775 34.7877 47.7773 34.7877 50.7874C34.7877 54.5422 31.9662 56.4196 28.4368 56.4196H19.2842V55.6854H20.69C21.7419 55.3183 21.7419 55.3183 21.7419 54.1751V50.4203V42.8898V39.135C21.7419 38.0023 21.7419 38.0023 20.69 38.0023C19.2842 37.6352 19.2842 37.6352 19.2842 37.6352V36.8591H26.6869ZM24.5634 38.0023V45.9104H26.3428C28.7908 45.9104 30.2162 44.7672 30.2162 41.7571C30.2162 39.5021 28.7908 37.6352 26.3428 37.6352C25.6153 37.6352 24.5634 38.0023 24.5634 38.0023ZM24.5634 46.6446V53.4409C24.5634 55.3183 25.6154 55.6854 27.7388 55.6854C30.5702 55.6854 31.9662 53.808 31.9662 50.7874C31.9662 47.7773 29.1348 46.6446 26.3428 46.6446H24.5634ZM40.411 50.4203V54.1751C40.411 55.3183 40.7649 55.3183 41.4924 55.6854H42.5443V56.4196H36.1935V55.6854H36.8915C37.9631 55.3183 37.9631 55.3183 37.9631 54.1751V50.4203V38.7365C37.9631 37.6352 37.619 37.2262 36.5376 37.2262H35.4857V36.492C37.2356 36.492 39.015 36.1249 40.411 35.7578V41.3795V50.4203ZM50.2912 54.9093C49.2491 55.6854 48.1677 56.4196 46.7717 56.4196C44.9922 56.4196 43.9403 54.9092 43.9403 53.4409C43.9403 50.4203 47.1256 49.6547 50.2912 49.2876V45.9104C50.2912 44.7672 49.603 44.0225 48.5216 44.0225C47.4697 44.0225 47.1256 44.4001 46.7717 45.1343C46.4177 46.2775 46.0737 46.6446 45.3658 46.6446C44.6482 46.6446 44.2942 46.2775 44.2942 45.9104C44.2942 44.4001 47.1256 43.2569 48.8657 43.2569C51.697 43.2569 52.7391 44.0225 52.7391 46.2775V53.4409C52.7391 54.1751 53.1225 54.5422 53.8205 54.5422C54.5185 54.5422 54.8724 54.1751 55.2165 54.1751L55.5704 54.5422C54.5185 55.6854 53.4764 56.4196 52.0411 56.4196C50.999 56.4196 50.6451 55.6854 50.2912 54.9093ZM50.2912 50.0218C48.1677 50.0218 46.0737 50.7874 46.0737 52.6648C46.0737 53.808 47.1256 54.9093 48.1677 54.9093C49.2491 54.9093 49.9471 54.5422 50.2912 54.1751V50.0218ZM66.1485 45.1343C66.1485 45.9104 65.7946 46.2775 65.1065 46.2775C64.3691 46.2775 64.0251 45.5328 63.6711 45.1343C63.3271 44.4001 62.6192 44.0225 61.9212 44.0225C59.7977 44.0225 58.3919 45.9104 58.3919 48.9205C58.3919 52.2977 60.1418 54.5422 62.9732 54.5422C64.3692 54.5422 65.4505 54.1751 66.1485 53.4409L66.5025 53.808C65.1065 55.6854 63.3271 56.4196 61.5771 56.4196C58.3919 56.4196 56.2684 53.441 56.2684 50.0218C56.2684 46.2775 58.3919 43.2569 62.2751 43.2569C64.3691 43.2569 66.1485 44.0225 66.1485 45.1343ZM71.7719 50.4203V54.1751C71.7719 55.3183 72.1258 55.3183 72.8533 55.6854H73.9052V56.4196H67.2005V55.6854H68.2426C69.324 55.3183 69.324 55.3183 69.324 54.1751V50.4203V38.7365C69.324 37.6352 68.9799 37.2262 67.8985 37.2262H66.8466V36.492C68.626 36.492 70.3759 36.1249 71.7719 35.7578V41.3795V49.6547L76.3826 45.1343C76.7267 44.7672 76.3826 44.4001 75.9992 44.0225H74.9571V43.2569H80.256V44.0225C78.8305 44.0225 78.4766 44.4001 77.7786 45.1343L73.9052 48.9205C78.8306 54.5422 78.8306 54.5422 78.8306 54.5422C79.5286 55.3183 79.8825 55.6854 80.954 55.6854V56.4196H74.9571V55.6854H75.9992C76.3826 55.6854 76.3826 55.3183 75.9992 54.9093C74.2493 52.6648 74.2493 52.6648 74.2493 52.6648C72.8533 51.165 72.1258 50.0218 71.7719 50.0218V50.4203ZM83.402 56.0525C83.402 56.0525 83.0481 56.0525 82.704 56.4196H82.3599V51.9306H82.704C83.402 54.5422 84.4834 55.6854 86.2333 55.6854C88.0029 55.6854 88.7107 54.9093 88.7107 53.808C88.7107 52.6648 88.3568 51.9306 85.8794 51.165C84.1295 50.4203 82.704 49.2876 82.704 47.0431C82.704 44.4001 84.8373 43.2569 86.9313 43.2569C88.3568 43.2569 89.0548 43.624 89.4087 43.624L90.1067 43.2569H90.4508V47.4102H89.7528C89.4087 45.1342 88.7107 44.0225 86.9313 44.0225C85.5255 44.0225 84.4834 44.7672 84.4834 45.9104C84.4834 47.4102 85.1814 47.7773 87.2754 48.5219C89.4087 49.6547 90.8047 50.4203 90.8047 52.2977C90.8047 55.3183 88.7107 56.4196 86.2333 56.4196C84.8373 56.4196 84.1295 56.0525 83.402 56.0525ZM93.9801 53.808V44.7672H92.5841V44.4001C93.9801 43.2569 95.032 42.1556 96.1036 40.2468H96.4575V43.624H100.341V44.7672H96.4575V53.0423C96.4575 54.5422 97.1555 54.9093 98.2075 54.9093C98.9055 54.9093 99.2594 54.9093 100.341 54.1751V54.5422C99.2594 56.0525 98.2074 56.4196 96.8114 56.4196C95.032 56.4196 93.9801 55.3183 93.9801 53.808ZM101.383 50.0218C101.383 45.9104 104.558 43.2569 107.744 43.2569C110.88 43.2569 114.065 45.9104 114.065 50.0218C114.065 53.808 110.88 56.4196 107.744 56.4196C104.558 56.4196 101.383 54.1751 101.383 50.0218ZM111.263 50.0218C111.263 46.6446 109.838 44.0225 107.39 44.0225C105.256 44.0225 104.214 46.6446 104.214 49.6547C104.214 53.0424 105.256 55.6854 107.744 55.6854C110.191 55.6854 111.263 53.0424 111.263 50.0218ZM124.987 47.7773C124.987 45.9104 124.289 44.7672 122.893 44.7672C121.114 44.7672 120.416 45.5328 119.718 45.9104V50.4203V54.1751C119.718 55.3183 120.072 55.3183 120.76 55.6854H121.812V56.4196H115.136V55.6854H116.188C117.24 55.3183 117.24 55.3183 117.24 54.1751V50.4203V47.0431C117.24 45.5328 116.886 44.7672 115.834 44.7672H115.136V44.0225C116.886 44.0225 118.282 43.6239 119.718 42.8898V45.1343C121.114 44.0225 122.51 43.2569 124.289 43.2569C126.383 43.2569 127.818 44.7672 127.818 47.0431V50.4203V54.1751C127.818 55.3183 127.818 55.3183 128.861 55.6854H129.568V56.4196H123.237V55.6854H123.945C124.987 55.3183 124.987 55.3183 124.987 54.1751V50.4203V47.7773ZM130.61 50.0218C130.61 46.6446 132.744 43.2569 136.263 43.2569C139.095 43.2569 140.845 45.5328 141.189 48.5219H132.744C132.744 51.9306 134.14 54.5422 137.315 54.5422C139.095 54.5422 140.491 53.808 140.845 53.4409L141.189 53.808C139.793 55.3183 138.013 56.4196 135.919 56.4196C132.744 56.4196 130.61 53.441 130.61 50.0218ZM133.088 47.7773H138.75C138.75 45.9104 137.669 44.0225 135.919 44.0225C134.14 44.0225 133.088 45.9104 133.088 47.7773Z"></path>
</svg>
