<svg xmlns="http://www.w3.org/2000/svg" fill="none" viewBox="0 0 162 92" height="92" width="162">
<path fill="white" d="M74.2022 20.4654C66.2425 21.8621 59.8042 25.8383 55.7243 31.8776C54.0461 34.3619 54.0515 34.8211 55.7341 32.7065C59.0353 28.5579 64.1468 25.3041 69.6606 23.8416C75.3146 22.3419 82.032 22.5704 87.4589 24.4474C93.9645 26.6973 99.6215 31.5097 101.958 36.7826L102.479 37.9572L104.076 38.026C104.955 38.0637 105.719 38.0322 105.775 37.9559C105.971 37.6859 104.57 34.3399 103.525 32.5811C100.17 26.9377 94.1322 22.7596 86.5997 20.8701C84.6414 20.3787 83.9017 20.3083 80.0941 20.2505C77.1572 20.2059 75.293 20.2739 74.2022 20.4654ZM56.6025 26.4376C54.3837 28.2534 52.4963 30.2984 51.0172 32.4895C49.8656 34.1955 48.331 37.4847 48.5065 37.8708C48.5625 37.9941 48.9816 38.0863 49.4375 38.0755C50.091 38.06 50.3033 37.9503 50.441 37.5572C52.3635 32.0626 54.0812 29.2801 57.5007 26.1216C58.2073 25.469 58.7073 24.9352 58.6118 24.9352C58.5163 24.9352 57.6122 25.6112 56.6025 26.4376ZM17.002 44.9333V49.1816H20.4079C24.1856 49.1816 25.459 48.9375 26.6644 47.9819C27.6567 47.1955 28.0492 46.2942 28.0492 44.8028C28.0492 43.0388 27.2938 41.9568 25.5496 41.2232C24.3457 40.7167 24.0567 40.685 20.6363 40.685H17.002V44.9333ZM35.4141 44.9333V49.1816H36.0278H36.6415V44.9333V40.685H36.0278H35.4141V44.9333ZM46.9324 43.8453C45.8216 45.5834 44.583 47.5022 44.1802 48.109L43.4481 49.2121L44.2796 49.1452C44.9906 49.0878 45.2002 48.9352 45.7248 48.0943L46.3386 47.1105L49.8217 47.1099L53.3045 47.1093L53.9727 48.1455C54.5322 49.0134 54.7539 49.1816 55.3382 49.1816C55.7219 49.1816 56.0356 49.129 56.0356 49.0648C56.0356 49.0005 54.8482 47.089 53.3965 44.8171L50.7575 40.6861L49.855 40.6856L48.9524 40.685L46.9324 43.8453ZM62.9095 44.9358V49.2092L63.5846 49.1435L64.2597 49.078V45.5227C64.2597 43.5672 64.3247 42.0014 64.404 42.043C64.4833 42.0845 65.4138 43.7077 66.4716 45.6501C68.2473 48.9104 68.4444 49.1816 69.039 49.1816C69.6341 49.1816 69.8346 48.9035 71.692 45.5032L73.7012 41.8248L73.7063 45.5032L73.7112 49.1816H74.4477H75.1842V44.9219V40.6622L74.0299 40.7254L72.8756 40.7886L71.041 44.1562C70.0318 46.0085 69.1298 47.5238 69.0365 47.5238C68.9432 47.5238 68.0371 46.0085 67.023 44.1562L65.1791 40.7886L64.0441 40.7254L62.9095 40.6622V44.9358ZM83.04 44.9333V49.1816H87.9499C92.6767 49.1816 92.8598 49.1663 92.8598 48.7721C92.8598 48.3821 92.6566 48.3597 88.625 48.3059L84.3903 48.2491V46.7984V45.3478L87.8272 45.2442C91.0596 45.1468 91.2641 45.1159 91.2641 44.7261C91.2641 44.3336 91.0778 44.3085 87.7543 44.254L84.2444 44.1966L84.3173 42.907L84.3903 41.6176L88.5023 41.5608C92.4111 41.5067 92.6143 41.4837 92.6143 41.0945C92.6143 40.7008 92.4312 40.685 87.8272 40.685H83.04V44.9333ZM98.5062 41.0924C98.5062 41.4688 98.7087 41.5044 101.145 41.5587L103.784 41.6176L103.851 45.3996L103.918 49.1816H104.526H105.135V45.3478V41.514H107.712C110.126 41.514 110.29 41.4876 110.29 41.0995C110.29 40.6966 110.126 40.685 104.398 40.685C98.7036 40.685 98.5062 40.6987 98.5062 41.0924ZM117.164 44.9333V49.1816H122.074C126.82 49.1816 126.984 49.1677 126.984 48.7672C126.984 48.3689 126.82 48.3527 122.81 48.3527H118.637V46.7984V45.2442H122.074H125.511V44.7261V44.208H122.074H118.637V42.861V41.514H122.81C126.82 41.514 126.984 41.4978 126.984 41.0995C126.984 40.6989 126.82 40.685 122.074 40.685H117.164V44.9333ZM133.857 44.9333V49.1816H134.594H135.33V47.3165V45.4514H137.403H139.476L141.147 47.3064C142.637 48.9601 142.905 49.1624 143.616 49.1715C144.055 49.1771 144.414 49.1246 144.414 49.055C144.414 48.9854 143.992 48.4957 143.476 47.967C142.961 47.4382 142.234 46.6614 141.862 46.2406L141.186 45.4757L142.168 45.2525C144.83 44.6473 145.241 41.837 142.794 40.9739C142.205 40.7665 140.831 40.685 137.916 40.685H133.857V44.9333ZM24.832 42.0331C26.1997 42.7114 26.6909 43.4398 26.6909 44.7901C26.6909 46.2144 26.0843 47.2148 24.8492 47.8274C24.1269 48.1855 23.5726 48.2491 21.1754 48.2491H18.3522L18.2839 45.1497C18.2464 43.445 18.2751 41.9195 18.3478 41.7597C18.5672 41.2771 23.7484 41.4953 24.832 42.0331ZM141.927 41.7429C143.298 42.1464 143.607 43.2771 142.539 43.9856C141.958 44.3715 141.559 44.4152 138.611 44.4152H135.33V42.9646V41.514H138.24C139.84 41.514 141.499 41.6169 141.927 41.7429ZM51.2485 43.7181C51.9236 44.8137 52.5128 45.7917 52.5577 45.8916C52.6029 45.9915 51.4152 46.0731 49.9186 46.0731C48.4223 46.0731 47.1978 46.0248 47.1978 45.9658C47.1978 45.7024 49.6766 41.7214 49.8391 41.7237C49.9392 41.7251 50.5734 42.6227 51.2485 43.7181ZM48.1798 51.4765C48.1798 52.0452 49.5521 55.0513 50.5741 56.7221C54.897 63.7873 63.1167 68.8534 72.4933 70.2313C75.8853 70.7299 81.5813 70.5504 84.7794 69.8441C89.403 68.8231 92.7341 67.4456 96.4195 65.0301C98.6925 63.5405 100.068 62.3392 101.99 60.1651C103.383 58.5882 105.778 55.0439 105.569 54.8673C105.506 54.8141 105.039 55.3384 104.532 56.0322C99.3544 63.1134 90.5671 67.4174 80.5851 67.7612C70.086 68.1231 60.525 63.9589 54.6272 56.4556C53.7852 55.3842 52.7413 53.7756 52.308 52.8808L51.5202 51.254H49.8499C48.8237 51.254 48.1798 51.3398 48.1798 51.4765ZM102.566 51.8239C102.286 52.7846 100.341 56.1057 99.305 57.3929C98.7659 58.0627 97.7867 59.1156 97.1292 59.7326C96.4715 60.3497 96.1585 60.7528 96.4337 60.6286C97.2338 60.267 100.547 57.2437 101.663 55.8567C102.805 54.4361 104.395 51.9107 104.397 51.513C104.398 51.3566 104.069 51.254 103.565 51.254C102.861 51.254 102.707 51.3418 102.566 51.8239Z" clip-rule="evenodd" fill-rule="evenodd"></path>
</svg>
