<svg xmlns="http://www.w3.org/2000/svg" fill="none" viewBox="0 0 161 91" height="91" width="161">
<path fill="white" d="M46.8668 56.5492C46.7626 56.9802 46.8052 56.966 46.4453 56.9707H36.2529C36.0635 56.9755 36.0446 56.8618 36.1582 56.7339L51.7072 38.3385C51.783 38.258 51.9014 38.2627 51.8303 38.5327L46.8668 56.5492Z"></path>
<path fill="white" d="M59.8631 61.4421C59.9247 61.4421 59.9815 61.3853 59.9815 61.3237V59.595C59.9815 59.5334 59.9247 59.4766 59.8631 59.4766H36.1868C36.1252 59.4766 36.0684 59.5334 36.0684 59.595V61.3237C36.0684 61.3853 36.1252 61.4421 36.1868 61.4421H47.961H59.8631Z"></path>
<path fill="white" d="M49.3496 56.9838C76.5165 49.9269 58.5568 23.2715 58.5568 23.2715L49.2833 56.9507C49.2833 56.9507 49.2785 57.0028 49.3496 56.9838Z"></path>
<path fill="white" d="M125.607 32.9671C125.607 32.9671 125.583 32.9671 125.555 32.9671C125.526 32.9671 125.479 32.9482 125.455 32.9198C125.432 32.8961 125.408 32.8724 125.408 32.8724L119.715 27.1416V27.2316V27.5584V32.7303C119.715 32.7777 119.677 32.8251 119.62 32.8251H117.972C117.925 32.8251 117.877 32.773 117.877 32.7303L117.863 23.4047C117.863 23.3621 117.911 23.3242 117.958 23.3242H118.143C118.143 23.3242 118.166 23.3242 118.19 23.3242C118.218 23.3242 118.256 23.3432 118.285 23.3668C118.313 23.3905 118.332 23.4095 118.332 23.4095L124.02 28.8798V28.7661V28.4772V23.5563C124.02 23.5089 124.058 23.4616 124.115 23.4616H125.777C125.825 23.4616 125.872 23.5089 125.872 23.5563V32.8819C125.872 32.9245 125.825 32.9671 125.777 32.9671H125.607Z"></path>
<path fill="white" d="M111.583 32.9671C108.888 32.9671 106.775 30.8548 106.775 28.1599C106.775 25.4934 108.935 23.3242 111.583 23.3242C114.24 23.3242 116.404 25.4934 116.404 28.1599C116.409 30.8548 114.287 32.9671 111.583 32.9671ZM111.583 25.2045C109.972 25.2045 108.66 26.5306 108.66 28.1552C108.66 29.7655 109.972 31.0774 111.583 31.0774C113.202 31.0774 114.524 29.7655 114.524 28.1552C114.524 26.5306 113.202 25.2045 111.583 25.2045Z"></path>
<path fill="white" d="M102.522 32.9683C100.633 32.9683 99.6902 32.1205 99.5244 31.95C99.5007 31.9263 99.4439 31.8742 99.4392 31.8553C99.4392 31.8553 99.4439 31.8316 99.4818 31.7653L100.135 30.6144C100.164 30.5717 100.225 30.5623 100.263 30.5623C100.315 30.5623 100.353 30.5765 100.363 30.586L100.42 30.6238C101.367 31.249 102.035 31.3816 102.428 31.3816C103.077 31.3816 103.55 30.9601 103.55 30.3823C103.55 29.7382 103.062 29.2409 102.016 28.8288C100.836 28.3647 99.4297 27.479 99.4297 25.9208C99.4297 24.6704 100.382 23.3301 102.466 23.3301C103.763 23.3301 104.819 23.96 105.331 24.3389C105.412 24.3863 105.388 24.5283 105.369 24.5662L104.668 25.6224C104.616 25.6982 104.507 25.7598 104.445 25.7598C104.403 25.7361 104.37 25.7171 104.332 25.6887C104.005 25.4708 103.133 24.893 102.357 24.893C101.784 24.893 101.315 25.2861 101.315 25.7645C101.315 26.366 101.784 26.797 102.93 27.2659C104.085 27.7253 105.625 28.5352 105.625 30.2686C105.625 31.5948 104.464 32.9683 102.522 32.9683Z"></path>
<path fill="white" d="M84.4126 32.9675C82.3334 32.9675 80.6426 31.3145 80.6426 29.2827V23.5566C80.6426 23.5093 80.6899 23.4619 80.7373 23.4619H82.4423C82.5039 23.4619 82.5371 23.514 82.5371 23.5566V29.169C82.5371 30.2394 83.3612 31.0825 84.4079 31.0825C85.4735 31.0825 86.3071 30.2442 86.3071 29.169V23.5566C86.3071 23.5093 86.345 23.4619 86.4018 23.4619H88.1068C88.1542 23.4619 88.2016 23.514 88.2016 23.5566V29.2827C88.2063 31.3145 86.506 32.9675 84.4126 32.9675Z"></path>
<path fill="white" d="M90.3129 32.8301C90.2703 32.8301 90.2324 32.7828 90.2324 32.7354V23.5566C90.2324 23.5093 90.2703 23.4619 90.3129 23.4619H93.6946C96.2853 23.4619 98.3929 25.5553 98.3929 28.1318C98.3929 30.7225 96.2853 32.8301 93.6946 32.8301H90.3129ZM92.0559 31.1109H93.5525C95.1865 31.1109 96.4226 29.8321 96.4226 28.1318C96.4226 26.441 95.1912 25.1669 93.5525 25.1669H92.0559V31.1109Z"></path>
<path fill="white" d="M76.8766 32.8301C76.815 32.8301 76.7818 32.7828 76.7818 32.7354V28.9228H72.4861V32.7354C72.4861 32.7828 72.4482 32.8301 72.3914 32.8301H70.7432C70.6958 32.8301 70.6484 32.778 70.6484 32.7354V23.5566C70.6484 23.5093 70.7005 23.4619 70.7432 23.4619H72.3914C72.4529 23.4619 72.4861 23.5093 72.4861 23.5566V27.2177H76.7818V23.5566C76.7818 23.5093 76.8197 23.4619 76.8766 23.4619H78.5248C78.5721 23.4619 78.6195 23.5093 78.6195 23.5566V32.7307C78.6195 32.778 78.5674 32.8254 78.5248 32.8254H76.8766V32.8301Z"></path>
<path fill="white" d="M88.6086 47.092C88.547 47.092 88.5138 47.0399 88.5138 46.9973V42.5405L85.4211 37.8706C85.4021 37.8422 85.3974 37.7996 85.4164 37.7711C85.4306 37.7427 85.4637 37.7285 85.5063 37.7285H87.3061C87.3298 37.7285 87.3582 37.7333 87.3914 37.7853L89.4516 40.826L91.5166 37.7806C91.5497 37.738 91.5592 37.7285 91.6018 37.7285H93.4016C93.4442 37.7285 93.4727 37.7427 93.4916 37.7711C93.5105 37.7996 93.5058 37.8374 93.4821 37.8753L90.3515 42.5263V46.9973C90.3515 47.0446 90.3041 47.092 90.2568 47.092H88.6086Z"></path>
<path fill="white" d="M84.8819 47.0925C84.7114 47.0925 84.6498 47.0593 84.5456 46.8415L84.0057 45.6527H80.0226L79.4779 46.8604C79.4305 46.9693 79.3358 47.0925 79.1322 47.0925H77.6071C77.5645 47.0925 77.5361 47.0783 77.5218 47.0546C77.5076 47.0309 77.5076 47.0025 77.5266 46.9693L81.865 37.6437C81.8792 37.6153 81.9218 37.5869 81.9502 37.5869H82.0876C82.116 37.5869 82.1586 37.6153 82.1728 37.6485L86.5112 46.9741C86.5254 47.0072 86.5301 47.0404 86.5159 47.0593C86.5017 47.083 86.4685 47.0972 86.4307 47.0972H84.8819V47.0925ZM81.8507 41.5748L80.7046 44.0992H83.3284L82.1207 41.4801H81.9076L81.8507 41.5748Z"></path>
<path fill="white" d="M70.7334 47.0919C70.6718 47.0919 70.6387 47.0398 70.6387 46.9971V37.8184C70.6387 37.771 70.6766 37.7236 70.7334 37.7236H73.9635C75.5407 37.7236 76.7768 38.7845 76.7768 40.1344C76.7768 41.3089 75.5122 42.0431 75.2565 42.1757L74.9439 42.3414L75.2707 42.4788C75.9243 42.7488 77.0278 43.3881 77.0278 44.5817C77.0278 45.9883 75.7727 47.0919 74.1719 47.0919H70.7334ZM72.4668 45.4437H73.8972C74.5413 45.4437 75.0623 44.9132 75.0623 44.2643C75.0623 43.5965 74.3755 43.1276 73.7598 43.1276H72.4716V45.4437H72.4668ZM72.4668 41.6594H73.7172C74.3424 41.6594 74.8539 41.1384 74.8539 40.4943C74.8539 39.8739 74.3566 39.386 73.7172 39.386H72.4668V41.6594Z"></path>
<path fill="white" d="M75.3279 61.4886C72.6614 61.4886 70.4922 59.3289 70.4922 56.6814C70.4922 54.0149 72.6614 51.8457 75.3279 51.8457C76.6256 51.8457 77.6249 52.2293 78.5674 53.0913C78.5958 53.115 78.6053 53.1387 78.6101 53.1671C78.6101 53.1908 78.6006 53.2192 78.5769 53.2381L77.4923 54.3654C77.4734 54.3843 77.4544 54.389 77.4402 54.389C77.426 54.389 77.4023 54.3843 77.3834 54.3654C76.8434 53.8823 76.1235 53.6123 75.3942 53.6123C73.7791 53.6123 72.5098 54.9384 72.5098 56.634C72.5098 58.3059 73.7839 59.6131 75.4084 59.6131C76.1283 59.6131 76.8624 59.3479 77.3739 58.9074C77.3881 58.8932 77.4165 58.8884 77.4449 58.8884C77.4734 58.8884 77.497 58.8979 77.5018 58.9027L78.5864 60.0583C78.6006 60.0725 78.6101 60.0962 78.6053 60.1246C78.6053 60.153 78.5911 60.1862 78.5722 60.2004C77.7054 61.0434 76.583 61.4886 75.3279 61.4886Z"></path>
<path fill="white" d="M117.11 61.3516C117.049 61.3516 117.016 61.2995 117.016 61.2569V52.0781C117.016 52.0308 117.054 51.9834 117.11 51.9834H118.759C118.806 51.9834 118.853 52.0308 118.853 52.0781V59.6466H122.32C122.382 59.6466 122.415 59.6987 122.415 59.7413V61.2522C122.415 61.2995 122.377 61.3469 122.32 61.3469H117.11V61.3516Z"></path>
<path fill="white" d="M114.264 61.3514C114.094 61.3514 114.032 61.3183 113.928 61.1004L113.383 59.9116H109.4L108.855 61.1193C108.808 61.2283 108.713 61.3562 108.51 61.3562H106.985C106.942 61.3562 106.914 61.3419 106.899 61.3183C106.885 61.2946 106.885 61.2662 106.899 61.233L111.238 51.9074C111.252 51.879 111.295 51.8506 111.323 51.8506H111.46C111.489 51.8506 111.531 51.879 111.546 51.9122L115.879 61.233C115.893 61.2662 115.893 61.2993 115.879 61.3183C115.865 61.3419 115.832 61.3562 115.794 61.3562H114.264V61.3514ZM111.228 55.8385L110.082 58.3581H112.706L111.498 55.739H111.285L111.228 55.8385Z"></path>
<path fill="white" d="M103.465 61.3516C103.417 61.3516 103.37 61.2995 103.37 61.2569V53.6884H101.22C101.158 53.6884 101.125 53.6363 101.125 53.589V52.0781C101.125 52.0308 101.163 51.9834 101.22 51.9834H107.372C107.434 51.9834 107.467 52.0355 107.467 52.0781V53.589C107.467 53.6363 107.429 53.6884 107.372 53.6884H105.222V61.2569C105.222 61.3043 105.17 61.3516 105.127 61.3516H103.465Z"></path>
<path fill="white" d="M97.4307 61.3516C97.3833 61.3516 97.3359 61.2995 97.3359 61.2569V52.0781C97.3359 52.0308 97.388 51.9834 97.4307 51.9834H99.0931C99.1404 51.9834 99.1878 52.0308 99.1878 52.0781V61.2522C99.1878 61.2995 99.1357 61.3469 99.0931 61.3469H97.4307V61.3516Z"></path>
<path fill="white" d="M89.2803 61.3516C89.2187 61.3516 89.1855 61.2995 89.1855 61.2569V52.0781C89.1855 52.0308 89.2234 51.9834 89.2803 51.9834H92.6193C94.2391 51.9834 95.5558 53.2811 95.5558 54.8772C95.5558 56.5065 94.2438 57.8279 92.6335 57.8279H91.0137V61.2522C91.0137 61.2995 90.9616 61.3469 90.919 61.3469H89.2803V61.3516ZM91.0137 56.1418H92.4962C93.2019 56.1418 93.756 55.5877 93.756 54.882C93.756 54.2236 93.1924 53.6884 92.4962 53.6884H91.0137V56.1418Z"></path>
<path fill="white" d="M86.4673 61.3513C86.2968 61.3513 86.2352 61.3181 86.131 61.1003L85.5863 59.9115H81.6032L81.0585 61.1192C81.0111 61.2281 80.9164 61.356 80.7128 61.356H79.1877C79.1451 61.356 79.1167 61.3418 79.1025 61.3181C79.0882 61.2944 79.0882 61.266 79.1025 61.2281L83.4408 51.9025C83.455 51.8741 83.4977 51.8457 83.5261 51.8457H83.6634C83.6918 51.8457 83.7345 51.8741 83.7487 51.9073L88.0823 61.2281C88.0965 61.2613 88.0965 61.2944 88.0823 61.3134C88.0681 61.3371 88.0349 61.3513 87.9971 61.3513H86.4673ZM83.4313 55.8383L82.2852 58.358H84.9138L83.706 55.7389H83.4929L83.4313 55.8383Z"></path>
<path fill="white" d="M125.755 68.1398C125.817 68.1398 125.874 68.0829 125.874 68.0213V66.4631C125.874 66.4016 125.817 66.3447 125.755 66.3447H36.1887C36.1271 66.3447 36.0703 66.4016 36.0703 66.4631V68.0213C36.0703 68.0829 36.1271 68.1398 36.1887 68.1398H125.755Z"></path>
</svg>
