<svg xmlns="http://www.w3.org/2000/svg" fill="none" viewBox="0 0 162 92" height="92" width="162">
<g clip-path="url(#clip0_3829_21286)">
<path fill="white" d="M13.6679 43.2527H11.4941V42.5609H16.5663V44.0829C17.7257 42.8376 19.0299 42.2842 20.769 42.2842C21.7834 42.2842 22.6529 42.5609 23.3775 42.976C23.8123 43.3911 23.9572 43.6678 24.247 44.3596C25.2615 42.976 26.7107 42.2842 28.5946 42.2842C29.8989 42.2842 31.0582 42.6993 31.6379 43.3911C32.0727 43.9445 32.2176 44.7747 32.2176 46.435V54.0448H34.3914V54.5982H27.4353V54.0448H29.3192V46.5733C29.3192 44.4979 29.3192 44.0829 28.7395 43.6678C28.4497 43.3911 28.0149 43.2527 27.4353 43.2527C26.2759 43.2527 25.2615 43.8061 24.8267 44.7747C24.5369 45.7432 24.392 46.0199 24.392 50.7241V54.0448H26.2759V54.5982H19.6096V54.0448H21.4936V46.5733C21.4936 45.0514 21.3487 44.4979 21.2037 44.0829C20.9139 43.6678 20.3342 43.3911 19.7545 43.3911C18.5952 43.2527 17.5808 43.9445 17.146 44.7747C16.7112 45.6048 16.5663 47.1268 16.5663 50.7241V54.0448H18.4503V54.5982H11.4941V54.0448H13.6679V43.2527Z"></path>
<path fill="white" d="M35.2617 42.5615V43.2533H37.4355V54.0454H35.2617V54.7372H42.5077V54.0454H40.3339V42.5615H35.2617Z"></path>
<path fill="white" d="M40.623 38.8259C40.623 39.7944 39.7535 40.6245 38.739 40.6245C37.7246 40.6245 37 39.7944 37 38.8259C37 37.8573 37.7246 37.1655 38.739 37.1655C39.7535 37.0272 40.623 37.8573 40.623 38.8259Z"></path>
<path fill="white" d="M42.7969 36.4736V37.0271H44.9707V54.0454H42.7969V54.7372H49.8979V54.0454H47.8691V36.4736H42.7969Z"></path>
<path fill="white" d="M50.1875 36.4736V37.0271H52.3613V54.0454H50.1875V54.7372H57.4335V54.0454H55.2597V36.4736H50.1875Z"></path>
<path fill="white" d="M66.7081 46.9884C66.7081 44.913 66.7081 44.7747 66.4182 44.2212C66.1284 43.3911 65.4038 42.976 64.3893 42.976C63.5198 42.976 62.7952 43.2527 62.3605 43.8061C61.9257 44.3596 61.7808 44.913 61.7808 46.435V47.1268H66.7081V46.9884ZM61.6359 47.6802V48.5104C61.6359 51.5543 61.6359 52.2461 62.0706 52.7995C62.5054 53.6297 63.5198 54.1831 64.6792 54.1831C66.7081 54.1831 68.3022 52.7995 69.0268 50.5858H69.7514C69.1717 53.2146 67.1428 55.0133 64.5343 55.0133C61.2011 55.0133 58.3027 51.9694 58.3027 48.6487C58.3027 45.3281 61.2011 42.2842 64.3893 42.2842C66.4182 42.2842 68.1572 43.2527 69.1717 44.7747C69.7514 45.6048 69.8963 46.2966 70.0412 47.6802H61.6359Z"></path>
<path fill="white" d="M73.2285 43.2527H71.0547V42.5609H76.1269V44.2212C77.1413 42.976 78.4456 42.2842 80.1846 42.2842C81.4889 42.2842 82.7932 42.8376 83.5178 43.5294C84.2423 44.3596 84.3873 45.0514 84.3873 47.2651V54.0448H86.5611V54.5982H79.6049V54.0448H81.4889V49.3405C81.4889 45.7432 81.344 44.6363 80.9092 43.9445C80.4744 43.3911 79.8948 43.1143 79.3151 43.1143C78.4456 43.1143 77.4311 43.6678 76.9964 44.3596C76.4167 45.1897 76.1269 46.5733 76.1269 50.3091V53.9064H78.0108V54.4599H71.0547V53.9064H73.2285V43.2527Z"></path>
<path fill="white" d="M89.3164 43.2527H87.1426V42.5609H92.2148V44.2212C93.2292 42.976 94.5335 42.2842 96.2725 42.2842C97.5768 42.2842 98.881 42.8376 99.6056 43.5294C100.33 44.3596 100.475 45.0514 100.475 47.2651V54.0448H102.649V54.5982H95.6928V54.0448H97.5768V49.3405C97.5768 45.7432 97.4318 44.6363 96.9971 43.9445C96.5623 43.3911 95.9827 43.1143 95.403 43.1143C94.5335 43.1143 93.519 43.6678 93.0843 44.3596C92.5046 45.1897 92.2148 46.5733 92.2148 50.3091V53.9064H94.0987V54.4599H87.1426V53.9064H89.3164V43.2527Z"></path>
<path fill="white" d="M103.373 42.5615V43.2533H105.547V54.0454H103.373V54.7372H110.619V54.0454H108.445V42.5615H103.373Z"></path>
<path fill="white" d="M108.734 38.8259C108.734 39.7944 107.865 40.6245 106.85 40.6245C105.836 40.6245 105.111 39.7944 105.111 38.8259C105.111 37.8573 105.836 37.1655 106.85 37.1655C107.865 37.0272 108.734 37.8573 108.734 38.8259Z"></path>
<path fill="white" d="M124.531 54.0454H126.704V54.5988H121.632V52.9385C120.763 54.3221 119.314 54.8756 117.43 54.8756C115.98 54.8756 114.821 54.4605 114.096 53.7687C113.227 52.9385 113.082 52.2467 113.082 49.6179V43.2533H110.908V42.5615H115.98V49.7562C115.98 52.8002 115.98 53.3536 116.415 53.7687C116.705 54.0454 117.285 54.3221 118.009 54.3221C119.169 54.3221 120.183 53.7687 120.763 52.9385C121.487 51.8316 121.632 50.8631 121.632 47.5425V43.2533H119.458V42.5615H124.531V54.0454Z"></path>
<path fill="white" d="M129.748 43.2534H127.574V42.5616H132.646V44.0835C133.806 42.8383 135.11 42.2848 136.849 42.2848C137.863 42.2848 138.733 42.5616 139.458 42.9766C139.892 43.2534 140.182 43.5301 140.327 44.2219C141.342 42.8383 142.791 42.1465 144.675 42.1465C145.979 42.1465 147.138 42.5616 147.718 43.2534C148.153 43.8068 148.298 44.637 148.298 46.2973V53.9071H150.616V54.4605H143.66V53.9071H145.544V46.574C145.544 44.4986 145.544 44.0835 144.965 43.6684C144.675 43.3917 144.24 43.2534 143.66 43.2534C142.501 43.2534 141.486 43.8068 141.052 44.7753C140.617 45.7438 140.472 46.0206 140.472 50.7248V54.0454H142.356V54.5989H135.545V54.0454H137.574V46.574C137.574 45.052 137.429 44.4986 137.284 44.0835C136.994 43.6684 136.414 43.3917 135.835 43.3917C134.675 43.2534 133.516 43.9452 133.226 44.7753C132.791 45.6055 132.646 47.1274 132.646 50.7248V54.0454H134.53V54.5989H127.574V54.0454H129.748V43.2534Z"></path>
</g>
<defs>
<clipPath id="clip0_3829_21286">
<rect transform="translate(11.4922 36.4463)" fill="white" height="18.5956" width="139.123"></rect>
</clipPath>
</defs>
</svg>
