<svg xmlns="http://www.w3.org/2000/svg" fill="none" viewBox="0 0 162 92" height="92" width="162">
<path fill="white" d="M52.498 37.4053V42.7352H53.4929H54.4878V41.0229V39.3105L55.4736 38.478C56.0158 38.02 56.4789 37.6454 56.5027 37.6454C56.5265 37.6454 57.4897 38.7906 58.6431 40.1903L60.7402 42.7352H62.0004C62.6936 42.7352 63.2607 42.7139 63.2607 42.6878C63.2607 42.6618 62.0804 41.2048 60.6379 39.4503C59.1953 37.6957 58.015 36.2322 58.015 36.198C58.015 36.164 58.9918 35.2379 60.1857 34.1401C61.3795 33.0423 62.3563 32.1287 62.3563 32.1098C62.3563 32.0908 61.8094 32.0754 61.141 32.0754H59.9256L57.2294 34.4802L54.533 36.885L54.5089 34.4802L54.4847 32.0754H53.4914H52.498V37.4053ZM67.2402 37.4053V42.7352H71.491H75.7418V41.7749V40.8145H72.4859H69.2299V36.4449V32.0754H68.2351H67.2402V37.4053ZM79.45 37.4053V42.7352H84.0173H88.5847V41.7749V40.8145H85.0122H81.4397V39.4701V38.1256H83.4747H85.5096V37.2132V36.3009H83.4747H81.4397V35.1485V33.9961H84.8313H88.2229V33.0357V32.0754H83.8364H79.45V37.4053ZM93.4686 37.4053V42.7352H94.4634H95.4583V37.4053V32.0754H94.4634H93.4686V37.4053ZM101.337 37.4053V42.7352H102.332H103.327V39.174C103.327 37.1 103.361 35.6261 103.408 35.6447C103.453 35.6623 104.804 37.2648 106.409 39.206L109.329 42.7352H110.217H111.105V37.4053V32.0754H110.111H109.117L109.094 35.6693L109.07 39.2632L106.095 35.6693L103.121 32.0754H102.229H101.337V37.4053ZM116.984 37.4053V42.7352H121.599H126.215L126.189 41.7989L126.164 40.8626L122.568 40.8375L118.973 40.8123V39.469V38.1256H121.054H123.134V37.2132V36.3009H121.054H118.973V35.1485V33.9961H122.365H125.757V33.0357V32.0754H121.37H116.984V37.4053ZM131.002 37.3984V42.7352H131.997H132.992V40.7645V38.7939L134.817 38.8198L136.641 38.8458L137.741 40.7665L138.841 42.6872L139.987 42.7141C140.617 42.7289 141.132 42.7209 141.132 42.6964C141.132 42.672 140.792 42.0764 140.377 41.3731C139.962 40.6697 139.414 39.7417 139.161 39.3108L138.699 38.5275L139.189 38.273C141.41 37.1189 141.59 34.1575 139.524 32.7644C138.63 32.1619 138.457 32.1386 134.552 32.0982L131.002 32.0615V37.3984ZM138.237 34.2413C138.959 34.6917 139.189 35.6151 138.724 36.2017C138.593 36.3665 138.318 36.5966 138.113 36.7131C137.756 36.9156 137.639 36.9246 135.389 36.9249L133.037 36.9251L133.012 35.4549L132.987 33.9847L135.454 34.0144C137.752 34.0421 137.943 34.0576 138.237 34.2413Z" clip-rule="evenodd" fill-rule="evenodd"></path>
<path fill="white" d="M133.625 52.1599C133.625 50.3378 134.822 49.1525 136.986 48.8331C138.111 48.6671 139.799 48.8673 141.052 49.3153C141.645 49.5276 142.604 50.0033 142.883 50.2242C143.078 50.3779 143.066 50.3994 142.297 51.3075L141.889 51.7896L141.171 51.4157C140.776 51.2101 140.209 50.9733 139.911 50.8894C139.159 50.6785 137.51 50.603 136.848 50.7493C136.182 50.8965 135.724 51.3078 135.646 51.8282C135.6 52.1339 135.63 52.2238 135.861 52.4686C136.223 52.8537 136.582 52.9389 138.55 53.1084C141.172 53.3343 142.066 53.6001 142.878 54.3951C143.426 54.9311 143.67 55.5596 143.674 56.4472C143.678 57.2659 143.62 57.5619 143.343 58.1469C142.979 58.9133 142.322 59.4488 141.26 59.8454C140.582 60.0982 140.459 60.1126 138.961 60.1133C137.119 60.1143 136.414 59.9612 135.027 59.2593C134.176 58.8288 133.05 58.0094 133.099 57.8572C133.115 57.8084 133.37 57.4653 133.666 57.0948C134.173 56.4612 134.216 56.4294 134.39 56.5609C135.701 57.5525 136.57 57.9766 137.729 58.1907C138.725 58.3744 139.37 58.376 140.166 58.1968C141.281 57.946 141.737 57.4608 141.648 56.6216C141.555 55.741 140.908 55.4334 138.69 55.2142C136.6 55.0075 135.701 54.8185 134.974 54.4326C134.027 53.9293 133.625 53.2523 133.625 52.1599Z"></path>
<path fill="white" d="M66.6071 59.7795V54.4496V49.1196H70.9936H75.38V50.08V51.0403H71.9884H68.5968V52.1927V53.3452H70.6318H72.6668V54.2575V55.1698H70.6318H68.5968V56.5623V57.9548H72.1693H75.7418V58.8672V59.7795H71.1744H66.6071Z"></path>
<path fill="white" d="M95.6392 59.7795V54.4496V49.1196H96.6325H97.6259L97.65 51.5344L97.6741 53.9491L100.379 51.5344L103.084 49.1196H104.291C104.954 49.1196 105.497 49.1374 105.497 49.1591C105.497 49.1808 104.521 50.0984 103.327 51.1983C102.133 52.2982 101.156 53.2242 101.156 53.2561C101.156 53.288 102.336 54.749 103.779 56.5028C105.222 58.2566 106.402 59.7112 106.402 59.7354C106.402 59.7597 105.833 59.7795 105.137 59.7795H103.872L101.778 57.2311C100.626 55.8295 99.6558 54.695 99.6216 54.7102C99.5874 54.7253 99.1253 55.105 98.5947 55.554L97.6299 56.3703L97.6295 58.0749L97.6289 59.7795H96.6341H95.6392Z"></path>
<path fill="white" d="M110.381 59.7795V54.4496V49.1196H111.376H112.371V54.4496V59.7795H111.376H110.381Z"></path>
<path fill="white" d="M118.25 59.7795V54.4496V49.1196L119.132 49.1197L120.013 49.1198L122.998 52.7273L125.983 56.3347L126.006 52.7272L126.03 49.1196H127.024H128.018V54.4496V59.7795H127.12H126.222L123.254 56.1932L120.285 52.6068L120.261 56.1932L120.237 59.7795H119.244H118.25Z"></path>
<path fill="white" d="M52.498 54.4496V59.7795H53.4929H54.4878V57.8108V55.8421H56.827C58.1134 55.8421 59.3853 55.7987 59.6533 55.7456C60.8436 55.5096 61.8855 54.6381 62.2699 53.5566C62.8286 51.9851 61.9978 50.1075 60.4753 49.5006C59.6263 49.1622 59.1096 49.1208 55.7314 49.1202L52.498 49.1196V54.4496ZM59.5303 53.7837C60.594 53.3091 60.7525 52.0631 59.836 51.3788L59.447 51.0883L56.9674 51.0587L54.4878 51.029V52.5337V54.0383L56.8167 53.9968C58.7899 53.9618 59.2044 53.9292 59.5303 53.7837Z" clip-rule="evenodd" fill-rule="evenodd"></path>
<path fill="white" d="M80.6257 54.4425V59.7795H81.6206H82.6154V57.8108V55.8421H84.4115H86.2076L87.3282 57.8087L88.449 59.7754L89.6075 59.7774C90.5113 59.779 90.7508 59.7531 90.6968 59.6595C90.6587 59.5935 90.1475 58.7262 89.5608 57.7322C88.974 56.7383 88.4542 55.8461 88.4057 55.7497C88.3299 55.5995 88.3877 55.5379 88.8098 55.3186C89.4363 54.9931 90.0237 54.388 90.3073 53.7758C90.6257 53.0888 90.626 51.8733 90.3078 51.1869C90.0376 50.6038 89.4598 49.974 88.9324 49.6878C88.05 49.2087 87.8505 49.1863 84.1304 49.1448L80.6257 49.1057V54.4425ZM88.5604 52.4265C88.5072 51.9092 88.2763 51.5554 87.8247 51.2988C87.4742 51.0998 87.3232 51.0867 85.0348 51.0586L82.6154 51.0289V52.5302V54.0315L84.9896 54.0005C87.328 53.9699 87.3698 53.9657 87.7672 53.7293C88.3276 53.3959 88.6122 52.9286 88.5604 52.4265Z" clip-rule="evenodd" fill-rule="evenodd"></path>
<path fill="white" d="M19.1126 33.8685C18.6758 34.1093 18.2627 34.5488 18.0718 34.9761C17.9294 35.2949 17.9102 36.6358 17.9102 46.2513V57.1648L18.1343 57.6566C18.2833 57.9835 18.5181 58.2559 18.8345 58.4688L19.3105 58.7894H24.5446H29.7788L35.7123 52.4875L41.646 46.1855L41.6453 40.9115C41.645 37.6262 41.604 35.4818 41.5368 35.2245C41.3923 34.6722 40.9635 34.1517 40.4478 33.903C40.0471 33.7097 39.4929 33.699 29.7258 33.6973C20.6047 33.6958 19.3905 33.7153 19.1126 33.8685ZM41.4884 46.2418L35.6336 40.0236C32.4135 36.6035 29.755 33.8053 29.7258 33.8053C29.6966 33.8053 27.0381 36.6036 23.8179 40.0237L17.9629 46.242L23.8443 52.4879L29.7258 58.7337V53.3725C29.7258 48.7848 29.7491 47.952 29.8876 47.6001C30.0936 47.0765 30.4074 46.7202 30.8979 46.4531C31.2637 46.2539 31.5785 46.2418 36.3872 46.2418H41.4884Z" clip-rule="evenodd" fill-rule="evenodd"></path>
</svg>
