<svg xmlns="http://www.w3.org/2000/svg" fill="none" viewBox="0 0 162 91" height="91" width="162">
<g clip-path="url(#clip0_3829_21170)">
<path fill="white" d="M137.477 49.2781C137.503 49.2977 137.532 49.3119 137.564 49.3198C137.595 49.3277 137.628 49.3291 137.66 49.3238H141.172C141.329 49.3232 141.486 49.3114 141.641 49.2886C141.845 49.2641 142.038 49.1872 142.201 49.0658C142.364 48.9445 142.491 48.783 142.568 48.5982C142.702 48.2794 142.802 47.9478 142.865 47.6089C142.886 47.5201 142.865 47.395 142.974 47.3662C143.132 47.3322 143.295 47.3322 143.453 47.3662C143.495 47.374 143.508 47.4262 143.508 47.4692V47.6573C143.459 48.6373 143.416 49.6148 143.355 50.5962C143.328 51.0334 143.381 50.9655 142.964 50.9668H136.391C135.988 50.9668 136.062 50.9864 136.025 50.6354C136.006 50.376 136.062 50.1165 136.186 49.8863C136.978 48.2275 138.102 46.801 139.403 45.4961C139.806 45.0902 140.226 44.6999 140.592 44.2614C141.013 43.7603 141.34 43.2174 141.422 42.5649C141.496 42.0556 141.433 41.5366 141.241 41.0576C140.972 40.405 140.453 40.0605 139.735 40.0044C139.414 39.9714 139.088 40.0016 138.779 40.0931C138.47 40.1846 138.182 40.3355 137.934 40.5369C137.688 40.7266 137.508 40.9861 137.42 41.2794C137.351 41.513 137.406 41.6095 137.649 41.6005C138.63 41.5626 138.993 42.5884 138.709 43.2853C138.426 43.9822 137.471 44.1988 136.849 43.6846C136.687 43.5533 136.554 43.3919 136.458 43.2099C136.362 43.0278 136.304 42.8289 136.289 42.6248C136.189 41.5196 136.615 40.6217 137.485 39.9247C138.356 39.2278 139.401 39.0269 140.513 39.1587C140.93 39.2084 141.338 39.3179 141.722 39.4837C143.804 40.3777 143.86 42.6393 143.035 43.8373C142.714 44.2814 142.331 44.6802 141.897 45.0223C141.421 45.4138 140.921 45.7766 140.419 46.1394C139.555 46.7658 138.744 47.4445 138.102 48.298C137.866 48.6071 137.657 48.935 137.477 49.2781ZM112.686 44.772C112.781 44.6951 112.851 44.593 112.886 44.4782C113.157 43.9545 113.53 43.4869 113.984 43.1015C114.719 42.5064 115.554 42.3628 116.463 42.5978C116.769 42.6709 117.05 42.8157 117.285 43.0193C117.519 43.2229 117.698 43.4792 117.807 43.7657C117.989 44.2232 118.076 44.711 118.065 45.2013V49.1465C118.058 49.3028 118.068 49.4593 118.094 49.6137C118.163 49.9426 118.278 50.0574 118.617 50.1175C118.669 50.127 118.723 50.1327 118.776 50.1344C119.165 50.1605 119.169 50.1605 119.165 50.526C119.158 51.031 119.232 50.9513 118.721 50.954H115.402C115.124 50.954 115.117 50.954 115.122 50.6786C115.122 50.5141 115.052 50.3146 115.156 50.1919C115.261 50.0692 115.48 50.1618 115.645 50.1357C115.75 50.1188 115.858 50.1083 115.962 50.0887C116.066 50.0744 116.162 50.0272 116.234 49.9545C116.307 49.8818 116.353 49.7876 116.365 49.6867C116.39 49.5427 116.4 49.3968 116.396 49.2508V45.2757C116.401 45.0251 116.374 44.7749 116.317 44.5304C116.129 43.7801 115.461 43.429 114.705 43.6849C114.411 43.7895 114.149 43.964 113.942 44.1925C113.454 44.7253 113.119 45.3741 112.972 46.073C112.885 46.4393 112.843 46.8143 112.846 47.1902V49.1934C112.844 49.3289 112.855 49.4644 112.878 49.598C112.946 49.9373 113.069 50.0692 113.422 50.1201C113.604 50.1388 113.787 50.1457 113.969 50.1409C114.074 50.1409 114.132 50.1774 114.125 50.2871C114.124 50.2975 114.124 50.3079 114.125 50.3184C114.171 50.9579 114.171 50.9579 113.51 50.9579H110.248C109.986 50.9579 109.986 50.9579 109.98 50.7034C109.979 50.6929 109.979 50.6825 109.98 50.6721C109.994 50.5077 109.911 50.3093 110.019 50.1879C110.126 50.0666 110.324 50.1514 110.481 50.1397C110.962 50.1018 111.131 49.9426 111.152 49.4792C111.16 49.3658 111.162 49.2508 111.162 49.1361V44.4705C111.165 44.3141 111.159 44.1576 111.143 44.0019C111.104 43.6836 110.954 43.5373 110.629 43.4982C110.468 43.4815 110.307 43.4745 110.146 43.4773C110.025 43.4773 109.969 43.4369 109.973 43.3142C109.973 43.1576 109.982 42.9997 109.973 42.8443C109.964 42.689 110.039 42.6643 110.164 42.6551C110.528 42.6291 110.892 42.5989 111.254 42.5729C111.704 42.539 112.154 42.509 112.604 42.4763C112.839 42.4593 112.849 42.4593 112.83 42.6799C112.779 43.2933 112.718 43.9054 112.662 44.5187C112.639 44.6033 112.648 44.693 112.686 44.772ZM102.387 43.5216C102.038 43.1474 101.612 42.8497 101.136 42.6483C100.66 42.4469 100.146 42.3465 99.6264 42.3536C98.6634 42.3653 97.8131 42.7452 97.0998 43.4172C95.3066 45.1138 95.1763 48.1023 96.8084 49.9425C98.2859 51.6065 100.712 51.6861 102.304 50.1226C104.078 48.3752 104.119 45.3004 102.387 43.5216ZM101.412 49.0277C101.306 49.3463 101.14 49.6428 100.923 49.9021C100.78 50.073 100.601 50.2122 100.398 50.3101C100.195 50.408 99.9728 50.4625 99.7463 50.4697C99.5198 50.477 99.2944 50.4368 99.0853 50.3519C98.8762 50.267 98.6883 50.1394 98.5344 49.9777C98.0993 49.5418 97.8869 48.995 97.7648 48.4182C97.515 47.2607 97.5297 46.0641 97.8077 44.9128C97.8886 44.5763 98.0247 44.2546 98.2106 43.9601C98.8903 42.8822 100.267 42.839 101.013 43.8713C101.319 44.3245 101.521 44.8371 101.604 45.3735C101.699 45.8555 101.744 46.3457 101.738 46.8364C101.752 47.5792 101.642 48.3192 101.412 49.0277ZM134.493 40.9898H131.021C130.763 40.9874 130.506 41.0079 130.252 41.0511C129.996 41.0908 129.755 41.193 129.551 41.3483C129.347 41.5035 129.186 41.7066 129.085 41.9385C128.91 42.3421 128.778 42.7619 128.69 43.1914C128.666 43.2919 128.677 43.4302 128.581 43.4707C128.427 43.5178 128.262 43.5218 128.105 43.4824C128.009 43.4681 128.037 43.3663 128.043 43.2971C128.067 42.9643 128.091 42.6316 128.121 42.2988C128.199 41.4052 128.277 40.5116 128.357 39.6182C128.38 39.3689 128.38 39.365 128.638 39.365H135.597C135.844 39.365 135.827 39.3715 135.854 39.6026C135.884 39.864 135.861 40.1288 135.785 40.3814C135.709 40.634 135.581 40.8692 135.41 41.0733C134.637 42.0751 133.972 43.1524 133.428 44.2877C132.855 45.438 132.562 46.7006 132.571 47.9783C132.571 48.3842 132.615 48.7901 132.653 49.1947C132.686 49.5168 132.698 49.8407 132.688 50.1643C132.678 50.3413 132.637 50.5153 132.565 50.6785C132.507 50.8255 132.407 50.953 132.275 51.0457C132.144 51.1383 131.988 51.1921 131.827 51.2005C131.661 51.2267 131.491 51.2045 131.338 51.1366C131.185 51.0688 131.056 50.9584 130.968 50.8195C130.793 50.5443 130.694 50.2295 130.681 49.9059C130.61 49.008 130.778 48.1415 131.048 47.2879C131.477 45.9229 132.14 44.6622 132.878 43.4354C133.316 42.7047 133.789 41.9999 134.281 41.2991C134.341 41.2143 134.398 41.1295 134.493 40.9898ZM120.761 46.389V43.7593C120.761 43.5204 120.761 43.5191 120.512 43.5164H119.706C119.438 43.5164 119.438 43.5164 119.431 43.2359C119.429 43.215 119.429 43.1941 119.431 43.1733C119.438 42.9123 119.369 42.8953 119.725 42.7949C120.063 42.7046 120.374 42.5375 120.633 42.3074C120.892 42.0773 121.091 41.7908 121.213 41.4715C121.413 40.9641 121.542 40.433 121.596 39.8923C121.618 39.7279 121.64 39.5622 121.653 39.3951C121.661 39.292 121.706 39.2581 121.812 39.2477C122.468 39.1836 122.469 39.1836 122.469 39.8179V42.291C122.469 42.6916 122.437 42.6526 122.857 42.6539H124.693C124.935 42.6539 124.937 42.6603 124.941 42.9004C124.941 43.031 124.931 43.1733 124.941 43.3076C124.958 43.4799 124.876 43.5178 124.716 43.5164H122.719C122.426 43.5164 122.425 43.5164 122.425 43.8102V48.5084C122.419 48.7795 122.445 49.0505 122.501 49.3162C122.607 49.7677 122.867 50.0417 123.235 50.0926C123.448 50.132 123.669 50.1023 123.863 50.008C124.057 49.9137 124.214 49.76 124.309 49.5706C124.54 49.1792 124.602 48.7471 124.659 48.3126C124.703 47.9706 124.704 47.9668 125.054 47.9719C125.457 47.9785 125.474 47.8754 125.438 48.3831C125.414 48.8631 125.311 49.3363 125.133 49.7847C124.595 51.0806 123.17 51.6001 121.881 50.9696C121.25 50.6617 120.954 50.1267 120.822 49.4832C120.774 49.2372 120.751 48.9872 120.754 48.7367C120.765 47.9536 120.762 47.1706 120.761 46.389ZM107.535 46.0887V49.2207C107.531 49.3564 107.538 49.4921 107.555 49.6266C107.604 49.9373 107.732 50.0651 108.048 50.1226C108.154 50.1369 108.261 50.1448 108.368 50.1461C108.622 50.1565 108.622 50.1552 108.626 50.4136V50.6955C108.626 50.9565 108.626 50.9565 108.334 50.9565H105.274C105.096 50.9408 104.845 51.0401 104.756 50.9056C104.635 50.7216 104.717 50.4619 104.72 50.2349C104.72 50.1513 104.792 50.1461 104.854 50.1422C105.014 50.1343 105.176 50.1422 105.335 50.116C105.459 50.1062 105.576 50.0546 105.666 49.9701C105.755 49.8855 105.812 49.7734 105.825 49.6528C105.848 49.5191 105.859 49.3837 105.856 49.2482V44.3646C105.859 44.2397 105.85 44.1148 105.829 43.9914C105.765 43.6534 105.621 43.5229 105.272 43.4903C105.09 43.4764 104.907 43.4716 104.725 43.4759C104.6 43.4759 104.55 43.4277 104.556 43.3088C104.561 43.1901 104.556 43.1 104.556 42.9956C104.556 42.6655 104.556 42.6642 104.908 42.6394L107.284 42.4723C107.523 42.4554 107.527 42.454 107.527 42.7047V45.8041L107.535 46.0887ZM105.147 39.6913C105.148 39.4483 105.224 39.2111 105.363 39.0096C105.503 38.8081 105.701 38.6513 105.932 38.559C106.163 38.4667 106.418 38.443 106.663 38.491C106.908 38.539 107.133 38.6565 107.309 38.8287C107.486 39.0008 107.606 39.2199 107.654 39.4583C107.703 39.6966 107.677 39.9436 107.581 40.168C107.485 40.3923 107.323 40.5841 107.115 40.7189C106.907 40.8538 106.663 40.9258 106.413 40.9258C106.077 40.9249 105.754 40.7944 105.517 40.5629C105.28 40.3315 105.147 40.018 105.147 39.6913ZM94.1897 39.4736C93.9398 39.3308 93.6779 39.2089 93.4067 39.1094C92.5529 38.8206 91.6537 38.6793 90.7497 38.6918C89.9546 38.684 89.1594 38.6918 88.3643 38.6918H85.7853C85.2252 38.6918 85.2252 38.6918 85.2319 39.236C85.2319 39.5035 85.2319 39.5049 85.514 39.5075C85.8147 39.4953 86.1159 39.5092 86.414 39.5492C86.7726 39.6132 86.9445 39.7685 87.013 40.1117C87.0299 40.2038 87.0376 40.2973 87.0359 40.3909V49.2549C87.0371 49.3802 87.0222 49.5052 86.9915 49.6269C86.9676 49.7399 86.9103 49.8438 86.8265 49.9256C86.7428 50.0074 86.6363 50.0637 86.5201 50.0875C86.2998 50.1357 86.074 50.1555 85.8485 50.1463C85.1876 50.1463 85.1876 50.1463 85.2305 50.7832C85.2312 50.7936 85.2312 50.804 85.2305 50.8145C85.2305 50.9215 85.2789 50.9658 85.385 50.9607H90.9298C90.9888 50.9607 91.0359 50.9332 91.0373 50.8706C91.0373 50.6435 91.1192 50.3838 91.0037 50.1971C90.919 50.0667 90.6638 50.1568 90.4852 50.1489C90.2703 50.1398 90.0553 50.1423 89.8404 50.1489C89.7005 50.1464 89.5615 50.1267 89.4268 50.0901C89.31 50.0665 89.2035 50.0087 89.1216 49.9245C89.0397 49.8402 88.9863 49.7336 88.9687 49.619C88.9473 49.5277 88.9352 49.4346 88.9325 49.341V45.8956C88.9325 45.7273 89.0009 45.683 89.1607 45.6855C89.6085 45.6917 90.0599 45.6917 90.5147 45.6855C91.2674 45.6851 92.0166 45.5855 92.7417 45.3893C93.48 45.1961 94.162 44.8387 94.7337 44.3453C96.1253 43.0924 96.1253 40.5658 94.1897 39.4736ZM93.4644 43.0558C93.2186 44.0412 92.5323 44.562 91.5396 44.7525C91.1271 44.8202 90.7086 44.8477 90.2905 44.8347H89.1944C88.9257 44.8347 88.9257 44.8347 88.9257 44.5737V40.4746C88.9257 39.7528 89.138 39.5258 89.866 39.5049C90.4554 39.4662 91.0475 39.4964 91.6296 39.5949C92.7713 39.8324 93.3611 40.4301 93.5249 41.5525C93.6043 42.0527 93.5837 42.5631 93.4644 43.0558Z"></path>
<path fill="white" d="M65.8483 54.1682C65.8482 54.5174 65.7054 54.8523 65.4512 55.0993C65.1971 55.3462 64.8524 55.485 64.493 55.485C64.2249 55.485 63.9629 55.4078 63.74 55.2631C63.5171 55.1184 63.3434 54.9127 63.2408 54.672C63.1383 54.4314 63.1114 54.1666 63.1637 53.9111C63.216 53.6556 63.3451 53.421 63.5347 53.2368C63.7243 53.0526 63.9658 52.9272 64.2287 52.8764C64.4916 52.8256 64.7641 52.8517 65.0118 52.9514C65.2594 53.0511 65.4711 53.2199 65.62 53.4365C65.7689 53.6531 65.8484 53.9077 65.8483 54.1682ZM44.9338 28.9843C44.938 28.7252 45.0209 28.473 45.1721 28.2595C45.3232 28.046 45.5359 27.8807 45.7835 27.7842C45.9685 27.712 46.1677 27.6804 46.3668 27.6917C46.5659 27.7029 46.76 27.7568 46.9352 27.8494C47.1104 27.942 47.2623 28.0711 47.3802 28.2274C47.4981 28.3837 47.579 28.5634 47.6171 28.7536C47.6552 28.9438 47.6497 29.1398 47.6007 29.3277C47.5518 29.5156 47.4608 29.6906 47.3342 29.8403C47.2076 29.9901 47.0485 30.1108 46.8683 30.1938C46.6881 30.2768 46.4913 30.3202 46.2919 30.3207C46.1117 30.3218 45.9332 30.2879 45.7668 30.2209C45.6004 30.1539 45.4494 30.0553 45.3229 29.9307C45.1963 29.8062 45.0967 29.6583 45.0299 29.4957C44.9631 29.3332 44.9304 29.1593 44.9338 28.9843Z"></path>
<path fill="white" d="M35.6996 55.4747C35.5218 55.4748 35.3458 55.4407 35.1815 55.3746C35.0172 55.3085 34.868 55.2116 34.7423 55.0895C34.6166 54.9673 34.5168 54.8223 34.4488 54.6627C34.3807 54.5031 34.3457 54.3321 34.3457 54.1593C34.3457 53.9866 34.3807 53.8155 34.4487 53.6559C34.5168 53.4963 34.6165 53.3513 34.7422 53.2291C34.8679 53.1069 35.0171 53.01 35.1814 52.9439C35.3456 52.8778 35.5217 52.8438 35.6995 52.8438C36.0585 52.8437 36.4029 52.9823 36.6568 53.229C36.9107 53.4757 37.0533 53.8103 37.0534 54.1592C37.0534 54.5081 36.9108 54.8427 36.6569 55.0894C36.403 55.3361 36.0587 55.4747 35.6996 55.4747Z"></path>
<path fill="white" d="M42.467 58.2938C42.2669 58.2932 42.0694 58.2495 41.8888 58.1658C41.7081 58.0821 41.5488 57.9606 41.4223 57.81C41.2957 57.6593 41.2051 57.4833 41.157 57.2945C41.1088 57.1058 41.1043 56.909 41.1438 56.7184C41.1835 56.5278 41.2661 56.3481 41.3858 56.1922C41.5054 56.0363 41.6592 55.9082 41.8359 55.8169C42.0126 55.7257 42.208 55.6737 42.4079 55.6645C42.6078 55.6554 42.8073 55.6895 42.9921 55.7642C43.2391 55.8643 43.4502 56.0333 43.5984 56.2499C43.7467 56.4664 43.8256 56.7208 43.8251 56.9809C43.824 57.33 43.6804 57.6643 43.4257 57.9105C43.1711 58.1567 42.8263 58.2946 42.467 58.2938Z"></path>
<path fill="white" d="M47.6417 60.6928C47.6396 60.8872 47.5932 61.0788 47.5058 61.2537C47.4185 61.4286 47.2923 61.5825 47.1364 61.7044C46.9806 61.8263 46.7988 61.9131 46.6043 61.9586C46.4097 62.0041 46.2073 62.0072 46.0114 61.9676C45.8154 61.9279 45.631 61.8466 45.4713 61.7294C45.3116 61.6122 45.1807 61.4621 45.0879 61.2898C44.9951 61.1175 44.9428 60.9274 44.9347 60.7331C44.9266 60.5388 44.963 60.3452 45.0412 60.1662C45.1457 59.9268 45.3209 59.7228 45.5446 59.5801C45.7684 59.4373 46.0307 59.3622 46.2984 59.3643C46.6569 59.3701 46.9987 59.5127 47.2501 59.7612C47.5014 60.0098 47.642 60.3444 47.6417 60.6928Z"></path>
<path fill="white" d="M34.3458 39.2877C34.3444 39.115 34.3786 38.9439 34.4462 38.7842C34.5139 38.6246 34.6137 38.4796 34.7398 38.358C34.8659 38.2363 35.0159 38.1405 35.1808 38.0761C35.3456 38.0116 35.5221 37.9798 35.6997 37.9826C35.9687 37.982 36.2319 38.0592 36.4556 38.2043C36.6794 38.3494 36.8536 38.5559 36.9563 38.7975C37.0591 39.0391 37.0856 39.3049 37.0324 39.5611C36.9793 39.8174 36.8489 40.0525 36.6579 40.2365C36.5151 40.374 36.3426 40.479 36.1529 40.5438C35.9632 40.6087 35.7611 40.6318 35.5611 40.6114C35.3611 40.591 35.1683 40.5278 34.9966 40.4261C34.8248 40.3245 34.6785 40.1871 34.5681 40.0238C34.4205 39.8052 34.3431 39.549 34.3458 39.2877Z"></path>
<path fill="white" d="M44.9337 64.3875C44.9363 64.2148 44.9738 64.0442 45.0442 63.8855C45.1146 63.7268 45.2165 63.5832 45.344 63.4628C45.4716 63.3424 45.6223 63.2476 45.7876 63.1838C45.9528 63.12 46.1294 63.0884 46.3072 63.091C46.5749 63.0947 46.8355 63.1756 47.056 63.3232C47.2765 63.4709 47.4469 63.6788 47.5458 63.9206C47.6447 64.1624 47.6676 64.4273 47.6116 64.6817C47.5555 64.9362 47.4231 65.1688 47.231 65.3501C47.039 65.5314 46.7959 65.6533 46.5325 65.7004C46.2692 65.7474 45.9973 65.7176 45.7514 65.6146C45.5055 65.5115 45.2966 65.34 45.1511 65.1215C45.0055 64.9031 44.9299 64.6477 44.9337 64.3875Z"></path>
<path fill="white" d="M35.6928 44.3302C35.3337 44.3285 34.9901 44.1882 34.7375 43.9403C34.4848 43.6923 34.3439 43.3571 34.3457 43.0082C34.3475 42.6593 34.4919 42.3254 34.747 42.0799C35.0022 41.8344 35.3473 41.6975 35.7063 41.6992C36.0654 41.701 36.409 41.8413 36.6617 42.0892C36.9143 42.3371 37.0552 42.6724 37.0535 43.0213C37.0526 43.1941 37.0168 43.365 36.9479 43.5243C36.879 43.6836 36.7786 43.8281 36.6522 43.9497C36.5258 44.0712 36.3761 44.1674 36.2115 44.2327C36.0468 44.298 35.8706 44.3311 35.6928 44.3302Z"></path>
<path fill="white" d="M64.5025 44.3299C64.2338 44.3319 63.9706 44.2561 63.7463 44.1124C63.5221 43.9686 63.3469 43.7634 63.2429 43.5226C63.1391 43.2818 63.1114 43.0164 63.1633 42.7603C63.2152 42.5041 63.3444 42.2687 63.5344 42.0842C63.7245 41.8997 63.9667 41.7743 64.2303 41.7239C64.4939 41.6736 64.7669 41.7005 65.0147 41.8014C65.2625 41.9022 65.4738 42.0724 65.6218 42.2902C65.7698 42.5081 65.8477 42.7638 65.8457 43.0248C65.848 43.2836 65.7703 43.537 65.6228 43.7525C65.4753 43.9679 65.2648 44.1354 65.0183 44.2334C64.8546 44.2985 64.6793 44.3313 64.5025 44.3299ZM42.445 62.0043C42.0868 62.0015 41.7444 61.8609 41.4927 61.6134C41.241 61.3659 41.1004 61.0315 41.1018 60.6835C41.0982 60.5064 41.1313 60.3305 41.199 60.1661C41.2667 60.0017 41.3678 59.8522 41.4961 59.7264C41.6894 59.5369 41.9371 59.4086 42.2067 59.3583C42.4763 59.308 42.7553 59.338 43.0071 59.4445C43.2587 59.5511 43.4714 59.729 43.6172 59.9549C43.7631 60.1809 43.8353 60.4443 43.8245 60.7109C43.8171 61.0598 43.6678 61.3917 43.4093 61.6341C43.1508 61.8764 42.8041 62.0095 42.445 62.0043Z"></path>
<path fill="white" d="M34.3402 46.7163C34.3426 46.3685 34.4867 46.0359 34.741 45.7913C34.9953 45.5467 35.3391 45.4099 35.6969 45.4111C35.8754 45.4128 36.0518 45.4487 36.2161 45.5166C36.3803 45.5846 36.5292 45.6833 36.6541 45.8072C36.9064 46.0574 37.0461 46.3947 37.0427 46.7449C37.041 46.9184 37.0041 47.0898 36.9342 47.2494C36.8642 47.409 36.7626 47.5536 36.635 47.675C36.3776 47.9202 36.0304 48.056 35.67 48.0527C35.492 48.051 35.3161 48.0149 35.1526 47.9466C34.9891 47.8783 34.8411 47.7791 34.7174 47.6547C34.5937 47.5304 34.4966 47.3834 34.4319 47.2223C34.3671 47.0612 34.336 46.8892 34.3402 46.7163Z"></path>
<path fill="white" d="M62.0297 46.7251C62.0292 46.9863 61.9489 47.2414 61.7989 47.4581C61.6489 47.6748 61.436 47.8432 61.1872 47.9421C61.0013 48.0161 60.8008 48.049 60.6001 48.0385C60.3995 48.028 60.2038 47.9743 60.0271 47.8814C59.8504 47.7884 59.6972 47.6585 59.5784 47.501C59.4597 47.3435 59.3785 47.1623 59.3406 46.9706C59.3028 46.7788 59.3094 46.5814 59.3597 46.3924C59.4101 46.2034 59.503 46.0276 59.6317 45.8778C59.7605 45.7279 59.9219 45.6077 60.1043 45.5258C60.2867 45.444 60.4855 45.4025 60.6864 45.4044C61.0446 45.4072 61.387 45.5477 61.6387 45.7952C61.8905 46.0428 62.031 46.3771 62.0297 46.7251Z"></path>
<path fill="white" d="M31.861 55.475C31.593 55.4737 31.3315 55.3952 31.1094 55.2494C30.8874 55.1036 30.7149 54.897 30.6138 54.6559C30.5127 54.4148 30.4874 54.1499 30.5413 53.8949C30.5952 53.6398 30.7257 53.406 30.9164 53.2231C31.1071 53.0402 31.3494 52.9164 31.6126 52.8673C31.8757 52.8183 32.148 52.8462 32.3948 52.9476C32.6416 53.0489 32.8519 53.2192 32.9991 53.4368C33.1463 53.6544 33.2237 53.9095 33.2216 54.1699C33.2216 54.3427 33.1862 54.5138 33.1176 54.6733C33.049 54.8327 32.9485 54.9773 32.822 55.0987C32.6954 55.2202 32.5453 55.3159 32.3803 55.3805C32.2153 55.4451 32.0388 55.4772 31.861 55.475Z"></path>
<path fill="white" d="M68.3181 55.4747C67.9587 55.4746 67.6141 55.3358 67.3599 55.0889C67.1058 54.842 66.963 54.5071 66.9629 54.1579C66.9628 53.8974 67.0422 53.6427 67.1912 53.4261C67.3401 53.2095 67.5518 53.0407 67.7995 52.941C68.0471 52.8413 68.3197 52.8153 68.5826 52.8662C68.8455 52.9171 69.087 53.0426 69.2765 53.2269C69.4661 53.411 69.5952 53.6457 69.6475 53.9011C69.6998 54.1566 69.6729 54.4214 69.5703 54.662C69.4677 54.9026 69.294 55.1083 69.0711 55.253C68.8482 55.3976 68.5861 55.4748 68.3181 55.4747Z"></path>
<path fill="white" d="M34.346 35.5939C34.3407 35.3341 34.4153 35.0787 34.5603 34.8604C34.7052 34.642 34.9139 34.4707 35.1596 34.3682C35.3228 34.3003 35.4982 34.2644 35.6757 34.2628C35.8539 34.261 36.0307 34.2933 36.196 34.358C36.3613 34.4227 36.5118 34.5184 36.639 34.6396C36.8307 34.8221 36.9623 35.0557 37.0172 35.3109C37.0722 35.5661 37.048 35.8314 36.9477 36.0732C36.8474 36.315 36.6756 36.5225 36.454 36.6695C36.2324 36.8165 35.9709 36.8963 35.7026 36.8989C35.5251 36.9007 35.349 36.8682 35.1845 36.8035C35.0199 36.7387 34.8702 36.6428 34.7441 36.5215C34.6179 36.4001 34.5177 36.2556 34.4494 36.0964C34.3811 35.9372 34.3459 35.7664 34.346 35.5939Z"></path>
<path fill="white" d="M56.4025 28.9876C56.4058 28.7266 56.4887 28.4724 56.6409 28.2573C56.793 28.0421 57.0074 27.8757 57.257 27.779C57.5066 27.6825 57.7801 27.6601 58.0429 27.7147C58.3056 27.7694 58.5457 27.8986 58.7329 28.0859C58.9201 28.2733 59.0458 28.5105 59.0941 28.7674C59.1423 29.0243 59.1109 29.2894 59.0038 29.5289C58.8967 29.7684 58.7188 29.9717 58.4927 30.1128C58.2665 30.2539 58.0023 30.3265 57.7336 30.3214C57.3753 30.3152 57.0342 30.1714 56.7847 29.9214C56.5353 29.6715 56.3979 29.3358 56.4025 28.9876Z"></path>
<path fill="white" d="M42.4521 34.036C42.0934 34.0329 41.7504 33.8924 41.4975 33.6452C41.2445 33.398 41.102 33.0639 41.1009 32.7153C41.102 32.5417 41.1383 32.3699 41.2077 32.21C41.2772 32.05 41.3784 31.9049 41.5056 31.7829C41.6971 31.5991 41.9404 31.4746 42.2047 31.4252C42.469 31.3758 42.7424 31.4036 42.9904 31.5053C43.2384 31.6069 43.4498 31.7777 43.5979 31.9961C43.746 32.2145 43.824 32.4707 43.8222 32.7322C43.8163 33.081 43.6691 33.4134 43.4127 33.6575C43.1562 33.9015 42.8111 34.0375 42.4521 34.036ZM53.9327 58.2946C53.7323 58.2942 53.5344 58.2505 53.3535 58.1668C53.1725 58.0831 53.0129 57.9614 52.8862 57.8104C52.7596 57.6595 52.669 57.4831 52.621 57.2941C52.5729 57.105 52.5687 56.9079 52.6086 56.717C52.6485 56.5261 52.7315 56.3462 52.8516 56.1902C52.9718 56.0343 53.1261 55.9062 53.3034 55.8153C53.4808 55.7244 53.6767 55.6729 53.877 55.6646C54.0773 55.6562 54.277 55.6912 54.4617 55.7671C54.7087 55.8683 54.9192 56.0386 55.0666 56.2562C55.2139 56.4738 55.2915 56.7291 55.2894 56.9896C55.2873 57.3374 55.1432 57.6701 54.8889 57.9148C54.6345 58.1594 54.2906 58.296 53.9327 58.2946ZM34.3458 50.4408C34.3429 50.1819 34.4203 49.9281 34.5678 49.7125C34.7153 49.4968 34.9261 49.3292 35.1728 49.2315C35.3366 49.1666 35.5121 49.134 35.6889 49.1358C35.8692 49.1334 36.0481 49.1662 36.215 49.2321C36.382 49.2981 36.5337 49.3959 36.661 49.5199C36.7885 49.6436 36.8892 49.791 36.957 49.9532C37.0249 50.1154 37.0587 50.2892 37.0563 50.4643C37.0503 50.8136 36.9027 51.1465 36.6458 51.3908C36.3888 51.6351 36.043 51.7712 35.6835 51.7694C35.5059 51.7677 35.3303 51.732 35.1668 51.6642C35.0034 51.5965 34.8553 51.4981 34.7311 51.3747C34.6068 51.2513 34.5088 51.1053 34.4427 50.945C34.3766 50.7848 34.3437 50.6134 34.3458 50.4408Z"></path>
<path fill="white" d="M39.9819 29.0135C39.982 29.1859 39.9469 29.3566 39.8786 29.5157C39.8104 29.6748 39.7103 29.8192 39.5843 29.9405C39.4583 30.0619 39.3088 30.1578 39.1445 30.2227C38.9801 30.2876 38.8042 30.3201 38.6268 30.3185C38.2869 30.3207 37.9585 30.1994 37.706 29.9784C37.4536 29.7573 37.2953 29.4525 37.2623 29.1239C37.2293 28.7952 37.324 28.4664 37.5277 28.2021C37.7315 27.9379 38.0296 27.7571 38.3634 27.6955C38.6291 27.6461 38.9039 27.6746 39.1528 27.7774C39.4017 27.8801 39.6135 28.0526 39.7612 28.2727C39.9089 28.4928 39.9857 28.7507 39.9819 29.0134V29.0135Z"></path>
<path fill="white" d="M62.0296 35.5938C62.0271 35.8549 61.9449 36.1094 61.7933 36.325C61.6418 36.5407 61.4278 36.7077 61.1785 36.8051C60.992 36.8779 60.7912 36.9095 60.5907 36.8977C60.3901 36.8858 60.1947 36.8309 60.0187 36.7367C59.8427 36.6425 59.6904 36.5115 59.5728 36.3532C59.4553 36.1948 59.3754 36.013 59.339 35.821C59.3025 35.629 59.3103 35.4316 59.362 35.2429C59.4136 35.0542 59.5077 34.879 59.6376 34.73C59.7674 34.581 59.9297 34.4618 60.1127 34.3812C60.2957 34.3006 60.4949 34.2605 60.6958 34.2639C60.8733 34.266 61.0486 34.3021 61.2117 34.3702C61.3747 34.4382 61.5224 34.5369 61.6463 34.6604C61.7701 34.7839 61.8677 34.9299 61.9335 35.0901C61.9993 35.2502 62.0319 35.4214 62.0296 35.5938Z"></path>
<path fill="white" d="M69.6834 46.7434C69.6797 47.0045 69.5964 47.2587 69.4441 47.4738C69.2917 47.689 69.0772 47.8554 68.8276 47.9521C68.578 48.0489 68.3044 48.0715 68.0416 48.0172C67.7787 47.9629 67.5383 47.8342 67.3507 47.6472C67.1631 47.4602 67.0368 47.2234 66.9876 46.9666C66.9385 46.7099 66.9688 46.4448 67.0747 46.2048C67.1806 45.9648 67.3573 45.7606 67.5825 45.6182C67.8077 45.4757 68.0714 45.4013 68.3401 45.4044C68.7001 45.4115 69.0427 45.556 69.2941 45.8065C69.5454 46.057 69.6852 46.3936 69.6834 46.7434ZM42.5028 63.0902C42.8614 63.1008 43.2013 63.2482 43.4489 63.5005C43.6965 63.7528 43.8319 64.0897 43.8258 64.4383C43.8227 64.6121 43.7843 64.7836 43.713 64.943C43.6416 65.1024 43.5386 65.2465 43.4099 65.3673C43.2812 65.488 43.1292 65.5828 42.9627 65.6465C42.7963 65.7101 42.6185 65.7413 42.4396 65.7381C42.2608 65.7351 42.0843 65.6978 41.9203 65.6284C41.7562 65.5591 41.6079 65.459 41.4836 65.334C41.3594 65.2089 41.2617 65.0613 41.1962 64.8996C41.1307 64.7378 41.0986 64.5651 41.1018 64.3913C41.1041 64.216 41.1424 64.0428 41.2143 63.882C41.2863 63.7212 41.3906 63.576 41.521 63.4548C41.6515 63.3336 41.8055 63.239 41.974 63.1763C42.1427 63.1137 42.3224 63.0845 42.5028 63.0902Z"></path>
<path fill="white" d="M55.2892 28.9985C55.2887 29.2594 55.2085 29.5142 55.0588 29.7308C54.9092 29.9473 54.6967 30.1159 54.4484 30.215C54.2001 30.3142 53.9271 30.3395 53.664 30.2879C53.4008 30.2362 53.1594 30.1098 52.9702 29.9247C52.781 29.7396 52.6526 29.5041 52.6012 29.2481C52.5499 28.992 52.5778 28.727 52.6816 28.4864C52.7854 28.2458 52.9603 28.0405 53.1842 27.8966C53.4081 27.7526 53.6709 27.6765 53.9393 27.6778C54.1173 27.6782 54.2933 27.7128 54.4575 27.7795C54.6216 27.8461 54.7706 27.9436 54.896 28.0663C55.0214 28.1889 55.1207 28.3344 55.1881 28.4944C55.2556 28.6543 55.29 28.8256 55.2892 28.9985Z"></path>
<path fill="white" d="M51.4573 32.7144C51.46 32.9758 51.3827 33.2321 51.2351 33.4507C51.0875 33.6693 50.8763 33.8402 50.6284 33.9418C50.3804 34.0434 50.107 34.0711 49.8429 34.0214C49.5787 33.9717 49.3357 33.8469 49.1448 33.6627C48.9539 33.4785 48.8237 33.2433 48.7707 32.987C48.7177 32.7307 48.7444 32.4648 48.8473 32.2233C48.9502 31.9818 49.1247 31.7754 49.3486 31.6305C49.5725 31.4855 49.8357 31.4085 50.1047 31.4093C50.2822 31.4069 50.4585 31.4389 50.6231 31.5035C50.7877 31.5681 50.9374 31.664 51.0634 31.7856C51.1894 31.9071 51.2891 32.0519 51.3568 32.2114C51.4244 32.3709 51.4586 32.5419 51.4573 32.7144Z"></path>
<path fill="white" d="M57.7456 62.0053C57.4777 62.0053 57.216 61.9274 56.9939 61.7818C56.7719 61.6361 56.5998 61.4293 56.4996 61.1879C56.4332 61.0276 56.4001 60.8561 56.4025 60.6833C56.403 60.488 56.4482 60.2954 56.5347 60.1192C56.6213 59.9431 56.747 59.7878 56.9028 59.6646C57.0587 59.5414 57.2408 59.4534 57.4359 59.407C57.631 59.3605 57.8343 59.3568 58.0311 59.396C58.2279 59.4351 58.4134 59.5162 58.574 59.6334C58.7347 59.7506 58.8665 59.9011 58.96 60.0739C59.0535 60.2467 59.1063 60.4375 59.1146 60.6325C59.1229 60.8276 59.0865 61.022 59.0081 61.2017C58.9032 61.4421 58.7273 61.6468 58.5025 61.7899C58.2777 61.933 58.0143 62.0079 57.7456 62.0053Z"></path>
<path fill="white" d="M29.3992 46.7237C29.399 46.9182 29.3545 47.1103 29.2687 47.286C29.1829 47.4618 29.0581 47.6169 28.9032 47.7402C28.7483 47.8634 28.5673 47.9518 28.373 47.9988C28.1788 48.0459 27.9762 48.0505 27.7799 48.0123C27.5173 47.9613 27.2762 47.8357 27.0871 47.6516C26.8979 47.4674 26.7692 47.2329 26.7171 46.9777C26.6608 46.7009 26.6976 46.4138 26.822 46.1589C26.9465 45.9039 27.152 45.6946 27.4083 45.5619C27.6645 45.4291 27.9579 45.38 28.2451 45.4217C28.5323 45.4634 28.7981 45.5937 29.0033 45.7934C29.2568 46.0403 29.3992 46.3748 29.3992 46.7237Z"></path>
<path fill="white" d="M60.6751 49.1319C60.8524 49.1306 61.0281 49.1634 61.1923 49.2284C61.3565 49.2934 61.5059 49.3892 61.6318 49.5105C61.7577 49.6317 61.8577 49.7761 61.9259 49.9351C61.9941 50.0941 62.0291 50.2647 62.0291 50.437C62.0377 50.7029 61.9633 50.9651 61.8156 51.1891C61.668 51.4131 61.4541 51.5885 61.202 51.6922C61.0347 51.7611 60.8548 51.7966 60.6731 51.7966C60.4913 51.7966 60.3114 51.7611 60.1441 51.6922C59.892 51.5885 59.6781 51.4131 59.5305 51.1891C59.3829 50.9651 59.3085 50.7029 59.3171 50.437C59.317 50.2644 59.3522 50.0935 59.4206 49.9342C59.4891 49.7749 59.5894 49.6304 59.7157 49.509C59.842 49.3876 59.9918 49.2917 60.1565 49.227C60.3212 49.1623 60.4975 49.13 60.6751 49.1319Z"></path>
<path fill="white" d="M65.8482 46.7388C65.8475 46.9111 65.8118 47.0815 65.7431 47.2403C65.6744 47.3991 65.5742 47.5432 65.4481 47.6643C65.3221 47.7855 65.1729 47.8814 65.0088 47.9466C64.8447 48.0117 64.6689 48.0448 64.4917 48.0439C64.2898 48.0445 64.0903 48.0015 63.9077 47.9179C63.725 47.8343 63.5638 47.7123 63.4357 47.5607C63.3077 47.409 63.2159 47.2316 63.1672 47.0412C63.1185 46.8508 63.1139 46.6523 63.154 46.46C63.2212 46.1374 63.41 45.8507 63.6833 45.6561C63.9566 45.4615 64.2947 45.373 64.6317 45.4078C64.9686 45.4427 65.28 45.5984 65.505 45.8446C65.73 46.0907 65.8524 46.4096 65.8482 46.7388Z"></path>
<path fill="white" d="M31.873 37.9822C32.0499 37.9812 32.2254 38.0143 32.3891 38.0795C32.5529 38.1447 32.7018 38.2407 32.8272 38.362C32.9527 38.4833 33.0522 38.6274 33.1202 38.7862C33.1881 38.945 33.223 39.1152 33.223 39.2871C33.2256 39.5475 33.1485 39.8027 33.0015 40.0203C32.8546 40.238 32.6444 40.4083 32.3976 40.5097C32.2337 40.577 32.0577 40.6122 31.8797 40.6132C31.52 40.6141 31.1745 40.4763 30.9194 40.2298C30.6642 39.9834 30.5203 39.6485 30.5191 39.299C30.5181 38.9494 30.66 38.6137 30.9137 38.3658C31.1673 38.1178 31.512 37.978 31.8717 37.9769L31.8731 37.9822H31.873ZM51.4604 28.9943C51.4649 29.2552 51.3888 29.5115 51.242 29.7299C51.0951 29.9484 50.8843 30.1191 50.6366 30.22C50.4721 30.287 50.2956 30.3215 50.1173 30.3215C49.8477 30.3248 49.5831 30.2502 49.3572 30.1073C49.1313 29.9643 48.9542 29.7593 48.8483 29.5184C48.7692 29.3383 48.7323 29.1433 48.7403 28.9477C48.7482 28.752 48.8008 28.5605 48.8942 28.3869C48.9877 28.2134 49.1196 28.0622 49.2805 27.9443C49.4414 27.8264 49.6272 27.7447 49.8246 27.7051C50.022 27.6655 50.2259 27.6689 50.4218 27.7153C50.6176 27.7616 50.8003 27.8496 50.9569 27.973C51.1134 28.0963 51.2398 28.252 51.3268 28.4286C51.4139 28.6052 51.4595 28.7984 51.4604 28.9942V28.9943ZM33.2216 43.025C33.2216 43.1971 33.1865 43.3676 33.1184 43.5265C33.0503 43.6854 32.9506 43.8297 32.8249 43.951C32.6992 44.0723 32.55 44.1683 32.386 44.2334C32.2219 44.2984 32.0462 44.3313 31.869 44.3301C31.6007 44.3304 31.3384 44.2532 31.1153 44.1084C30.8922 43.9636 30.7184 43.7576 30.6161 43.5166C30.5137 43.2756 30.4873 43.0105 30.5403 42.7549C30.5933 42.4994 30.7233 42.2648 30.9137 42.0812C31.0561 41.9439 31.228 41.839 31.4171 41.7742C31.6063 41.7093 31.8079 41.6861 32.0074 41.7062C32.2069 41.7263 32.3993 41.7892 32.5707 41.8904C32.7421 41.9915 32.8883 42.1284 32.9986 42.2912C33.1461 42.5089 33.2238 42.7644 33.2216 43.025Z"></path>
<path fill="white" d="M24.2143 44.3298C24.0362 44.3276 23.8602 44.2913 23.6964 44.223C23.5327 44.1547 23.3844 44.0557 23.2601 43.9317C23.1357 43.8078 23.0376 43.6612 22.9716 43.5004C22.9055 43.3397 22.8727 43.1678 22.8751 42.9947C22.8786 42.7342 22.9614 42.4805 23.1132 42.2657C23.2649 42.0508 23.4788 41.8845 23.7277 41.7877C23.9767 41.6909 24.2496 41.668 24.5119 41.7218C24.7743 41.7756 25.0144 41.9037 25.2019 42.09C25.389 42.2761 25.5152 42.512 25.5644 42.7678C25.6135 43.0236 25.5835 43.2879 25.4781 43.5271C25.3726 43.7663 25.1965 43.9698 24.9721 44.1117C24.7476 44.2537 24.4848 44.3277 24.217 44.3245L24.2143 44.3298Z"></path>
<path fill="white" d="M64.5136 49.1322C64.6913 49.1319 64.8672 49.1661 65.0311 49.2328C65.1949 49.2995 65.3434 49.3974 65.4678 49.5206C65.592 49.644 65.6896 49.7903 65.7548 49.9509C65.82 50.1114 65.8515 50.2831 65.8474 50.4556C65.8467 50.8041 65.7037 51.138 65.4499 51.3841C65.196 51.6303 64.8521 51.7685 64.4935 51.7685C64.1348 51.7658 63.7915 51.6263 63.5377 51.3799C63.284 51.1336 63.14 50.8002 63.1368 50.4517C63.1347 50.2763 63.1691 50.1023 63.2378 49.9401C63.3065 49.7779 63.4081 49.6309 63.5367 49.5078C63.6652 49.3846 63.818 49.2879 63.9858 49.2234C64.1537 49.1589 64.3332 49.1279 64.5136 49.1322Z"></path>
<path fill="white" d="M57.7532 55.6572C58.1122 55.6591 58.4558 55.7993 58.7085 56.0472C58.9612 56.2952 59.1022 56.6304 59.1005 56.9793C59.0992 57.2395 59.0185 57.4935 58.8686 57.7091C58.7188 57.9248 58.5065 58.0924 58.2585 58.1908C58.0106 58.2892 57.7383 58.3139 57.4759 58.2619C57.2135 58.2099 56.9729 58.0835 56.7845 57.8986C56.596 57.7137 56.4683 57.4787 56.4173 57.2232C56.3664 56.9678 56.3945 56.7034 56.4982 56.4634C56.6019 56.2235 56.7765 56.0189 56.9998 55.8754C57.2232 55.7319 57.4854 55.656 57.7532 55.6572Z"></path>
<path fill="white" d="M68.329 44.33C67.9699 44.33 67.6255 44.1913 67.3716 43.9446C67.1177 43.6979 66.9751 43.3633 66.9751 43.0143C66.9751 42.6654 67.1177 42.3308 67.3716 42.084C67.6255 41.8373 67.9699 41.6987 68.329 41.6987C68.6881 41.6987 69.0325 41.8373 69.2864 42.084C69.5403 42.3308 69.683 42.6654 69.683 43.0143C69.683 43.3633 69.5403 43.6979 69.2864 43.9446C69.0325 44.1913 68.6881 44.33 68.329 44.33ZM53.9304 26.5969C53.7301 26.596 53.5324 26.552 53.3517 26.468C53.171 26.384 53.0117 26.2621 52.8854 26.111C52.759 25.96 52.6687 25.7835 52.621 25.5945C52.5733 25.4054 52.5693 25.2084 52.6094 25.0177C52.6496 24.827 52.7328 24.6472 52.8531 24.4915C52.9734 24.3358 53.1277 24.208 53.305 24.1173C53.4823 24.0266 53.6782 23.9752 53.8784 23.967C54.0786 23.9588 54.2781 23.9938 54.4627 24.0696C54.7096 24.1709 54.9199 24.3412 55.0672 24.5588C55.2144 24.7763 55.2919 25.0315 55.2898 25.2919C55.2899 25.4646 55.2546 25.6356 55.1861 25.7949C55.1176 25.9543 55.0172 26.0988 54.8907 26.2201C54.7642 26.3415 54.6142 26.4373 54.4494 26.502C54.2846 26.5667 54.1081 26.599 53.9304 26.597V26.5969Z"></path>
<path fill="white" d="M53.9463 31.4092C54.1239 31.4092 54.2998 31.4435 54.4637 31.5099C54.6276 31.5764 54.7763 31.6738 54.9013 31.7966C55.0262 31.9193 55.1248 32.0648 55.1914 32.2248C55.2581 32.3848 55.2914 32.5561 55.2894 32.7287C55.2892 32.9899 55.209 33.2451 55.0592 33.462C54.9094 33.6788 54.6966 33.8475 54.4479 33.9466C54.262 34.0209 54.0614 34.054 53.8607 34.0437C53.6599 34.0333 53.4641 33.9798 53.2873 33.8869C53.1105 33.794 52.9571 33.664 52.8383 33.5065C52.7195 33.3489 52.6383 33.1677 52.6004 32.9759C52.5498 32.7194 52.5788 32.454 52.6836 32.2135C52.7884 31.973 52.9643 31.7681 53.189 31.6249C53.4139 31.4817 53.6774 31.4066 53.9463 31.4092Z"></path>
<path fill="white" d="M29.3993 35.5858C29.398 35.8462 29.3172 36.1003 29.1671 36.316C29.0171 36.5317 28.8045 36.6994 28.5564 36.7976C28.3082 36.8959 28.0357 36.9204 27.7732 36.8681C27.5107 36.8157 27.2701 36.6889 27.0818 36.5036C26.8936 36.3183 26.7661 36.0829 26.7156 35.8271C26.6652 35.5714 26.6939 35.3069 26.7982 35.0671C26.9026 34.8272 27.0778 34.6229 27.3017 34.4799C27.5257 34.3369 27.7882 34.2616 28.0562 34.2637C28.4144 34.267 28.7567 34.4079 29.0084 34.6556C29.26 34.9033 29.4006 35.2377 29.3993 35.5858Z"></path>
<path fill="white" d="M65.8464 35.6186C65.8405 35.8124 65.7907 36.0025 65.7004 36.1754C65.6102 36.3482 65.4817 36.4996 65.3243 36.6187C65.1669 36.7377 64.9843 36.8216 64.7897 36.8642C64.5951 36.9068 64.3932 36.9071 64.1984 36.8651C63.8715 36.7946 63.5831 36.6091 63.3886 36.3442C63.1942 36.0793 63.1076 35.7539 63.1454 35.4306C63.1833 35.1074 63.3429 34.8092 63.5936 34.5935C63.8444 34.3779 64.1683 34.26 64.5032 34.2627C64.6837 34.2636 64.8623 34.2996 65.0283 34.3687C65.1943 34.4379 65.3443 34.5386 65.4695 34.6651C65.5946 34.7915 65.6924 34.941 65.7572 35.1048C65.8219 35.2686 65.8523 35.4433 65.8464 35.6186Z"></path>
<path fill="white" d="M20.3861 44.3302C20.0497 44.3281 19.7261 44.2044 19.4785 43.9832C19.2308 43.7619 19.0768 43.459 19.0465 43.1334C19.0162 42.8079 19.1118 42.483 19.3145 42.2222C19.5173 41.9614 19.8128 41.7832 20.1434 41.7226C20.4064 41.6738 20.6784 41.7019 20.925 41.8033C21.1716 41.9048 21.3816 42.075 21.5286 42.2926C21.6757 42.51 21.7529 42.765 21.7509 43.0252C21.7478 43.374 21.6023 43.7073 21.3464 43.952C21.0906 44.1967 20.7452 44.3327 20.3862 44.3302H20.3861Z"></path>
<path fill="white" d="M60.6808 37.9825C60.9476 37.9825 61.2084 38.0598 61.4299 38.2044C61.6514 38.349 61.8236 38.5545 61.9245 38.7945C61.9914 38.9539 62.0253 39.1245 62.024 39.2967C62.0249 39.5581 61.9457 39.8139 61.7965 40.0315C61.6473 40.249 61.4348 40.4185 61.1862 40.5184C60.9376 40.6185 60.664 40.6445 60.4002 40.593C60.1363 40.5415 59.8943 40.4149 59.7047 40.2293C59.563 40.0906 59.4547 39.9231 59.3878 39.7388C59.3209 39.5544 59.297 39.358 59.3179 39.1636C59.3388 38.9692 59.4039 38.7817 59.5086 38.6148C59.6132 38.4479 59.7548 38.3057 59.923 38.1985C60.148 38.0552 60.4117 37.98 60.6808 37.9825Z"></path>
<path fill="white" d="M77.3264 46.7275C77.3285 47.077 77.1876 47.4131 76.9347 47.6618C76.6817 47.9104 76.3375 48.0512 75.9778 48.0533C75.618 48.0553 75.2721 47.9184 75.0162 47.6726C74.7603 47.4269 74.6154 47.0924 74.6133 46.7428C74.6112 46.3932 74.7521 46.0572 75.005 45.8085C75.2579 45.5599 75.6022 45.4191 75.9619 45.417C76.3217 45.415 76.6676 45.5519 76.9235 45.7976C77.1793 46.0434 77.3243 46.3779 77.3264 46.7275Z"></path>
<path fill="white" d="M51.4606 56.9585C51.4627 57.1863 51.4039 57.4107 51.2901 57.6099C51.1762 57.809 51.0111 57.976 50.811 58.0947C50.6108 58.2133 50.3824 58.2794 50.1481 58.2866C49.9138 58.2938 49.6815 58.2418 49.4741 58.1357C49.2666 58.0296 49.091 57.873 48.9645 57.6812C48.8379 57.4895 48.7647 57.2691 48.752 57.0416C48.7393 56.8142 48.7875 56.5874 48.892 56.3834C48.9965 56.1795 49.1536 56.0054 49.348 55.8781C49.5707 55.7324 49.8328 55.6542 50.1012 55.6534C50.2789 55.6514 50.4553 55.6837 50.62 55.7484C50.7848 55.8131 50.9348 55.9089 51.0612 56.0303C51.1876 56.1517 51.288 56.2962 51.3566 56.4555C51.4251 56.6149 51.4605 56.7858 51.4606 56.9585Z"></path>
<path fill="white" d="M57.7626 31.4094C57.9397 31.4082 58.1154 31.4411 58.2794 31.5062C58.4435 31.5713 58.5926 31.6672 58.7183 31.7885C58.8441 31.9098 58.9438 32.0541 59.0119 32.213C59.0801 32.3719 59.1151 32.5424 59.1152 32.7145C59.12 32.891 59.0882 33.0666 59.0219 33.2309C58.9555 33.3953 58.8558 33.545 58.7288 33.6712C58.6017 33.7974 58.4499 33.8975 58.2823 33.9657C58.1147 34.0338 57.9347 34.0685 57.753 34.0677C57.5713 34.067 57.3916 34.0307 57.2245 33.9612C57.0575 33.8916 56.9066 33.7902 56.7807 33.6629C56.6548 33.5355 56.5565 33.3849 56.4917 33.22C56.4268 33.055 56.3967 32.8791 56.4032 32.7027C56.4037 32.5306 56.4394 32.3604 56.5083 32.2019C56.5771 32.0434 56.6777 31.8998 56.8042 31.7795C56.9307 31.6591 57.0806 31.5644 57.2452 31.5009C57.4097 31.4374 57.5856 31.4063 57.7626 31.4094Z"></path>
<path fill="white" d="M33.2194 46.7192C33.2246 46.9795 33.1495 47.2353 33.0038 47.4538C32.8581 47.6722 32.6484 47.8433 32.4018 47.9451C32.2381 48.0127 32.0622 48.0481 31.8842 48.0491C31.6145 48.0539 31.3493 47.9807 31.1224 47.8388C30.8956 47.6969 30.7172 47.4927 30.61 47.2521C30.5028 47.0115 30.4717 46.7454 30.5206 46.4875C30.5695 46.2297 30.6962 45.9918 30.8847 45.8041C31.0256 45.6638 31.1968 45.5557 31.386 45.4876C31.5752 45.4195 31.7776 45.3932 31.9785 45.4104C32.1795 45.4277 32.374 45.4881 32.5479 45.5874C32.7219 45.6866 32.871 45.8222 32.9844 45.9844C33.1359 46.2012 33.2178 46.4571 33.2194 46.7192Z"></path>
<path fill="white" d="M44.9337 32.7057C44.9317 32.5329 44.9654 32.3615 45.0328 32.2015C45.1003 32.0416 45.2001 31.8965 45.3264 31.7748C45.4527 31.653 45.6028 31.5572 45.768 31.4929C45.9331 31.4287 46.1098 31.3973 46.2876 31.4006C46.4649 31.3994 46.6407 31.4321 46.8049 31.4971C46.9691 31.5621 47.1184 31.6579 47.2443 31.7792C47.434 31.9621 47.5632 32.1959 47.6154 32.4506C47.6676 32.7053 47.6403 32.9694 47.5371 33.2089C47.4688 33.3684 47.3687 33.5132 47.2427 33.6351C47.1167 33.757 46.9671 33.8536 46.8027 33.9193C46.6383 33.985 46.4621 34.0186 46.2843 34.0182C46.1065 34.0177 45.9305 33.9832 45.7664 33.9166C45.6023 33.8501 45.4532 33.7529 45.3278 33.6304C45.2024 33.508 45.103 33.3627 45.0354 33.2029C44.9677 33.0431 44.9332 32.8719 44.9337 32.6992V32.7057Z"></path>
<path fill="white" d="M39.9871 32.7289C39.9872 32.9013 39.9521 33.072 39.8839 33.2311C39.8156 33.3902 39.7156 33.5346 39.5895 33.6559C39.4635 33.7772 39.314 33.873 39.1496 33.9379C38.9853 34.0028 38.8093 34.0354 38.6319 34.0339C38.2733 34.0308 37.9303 33.8907 37.6771 33.6438C37.424 33.3969 37.2811 33.0631 37.2793 32.7146C37.2803 32.5405 37.3169 32.3683 37.3871 32.2081C37.4572 32.0479 37.5594 31.9028 37.6878 31.7814C37.8162 31.6599 37.9681 31.5645 38.1348 31.5007C38.3015 31.4368 38.4796 31.4058 38.6587 31.4095C38.8356 31.4097 39.0107 31.4441 39.1737 31.5108C39.3368 31.5775 39.4845 31.6752 39.6082 31.798C39.732 31.9209 39.8292 32.0665 39.8943 32.2263C39.9593 32.3862 39.9909 32.5571 39.9871 32.7289Z"></path>
<path fill="white" d="M73.4987 46.7439C73.4941 46.9699 73.4296 47.191 73.3115 47.3858C73.1934 47.5805 73.0256 47.7425 72.8244 47.8559C72.6231 47.9693 72.3952 48.0305 72.1625 48.0334C71.9299 48.0363 71.7004 47.981 71.4962 47.8726C71.292 47.7643 71.1199 47.6067 70.9967 47.4149C70.8734 47.2232 70.8031 47.0038 70.7924 46.778C70.7818 46.5521 70.8313 46.3274 70.936 46.1256C71.0408 45.9237 71.1973 45.7515 71.3905 45.6255C71.6116 45.4813 71.8716 45.4036 72.1379 45.4023C72.3185 45.4019 72.4973 45.4364 72.6638 45.504C72.8304 45.5715 72.9815 45.6706 73.1082 45.7956C73.2348 45.9206 73.3346 46.0688 73.4016 46.2316C73.4687 46.3944 73.5017 46.5685 73.4987 46.7439Z"></path>
<path fill="white" d="M26.6915 39.2936C26.6929 39.1209 26.7294 38.9501 26.7988 38.791C26.8682 38.632 26.9692 38.4877 27.096 38.3666C27.2228 38.2455 27.3729 38.1498 27.5378 38.0851C27.7026 38.0203 27.879 37.9878 28.0568 37.9893C28.3245 37.9915 28.5856 38.0708 28.807 38.2172C29.0283 38.3636 29.2 38.5705 29.3004 38.8117C29.4007 39.0529 29.4252 39.3176 29.3708 39.5724C29.3163 39.8271 29.1853 40.0604 28.9944 40.2428C28.8034 40.4252 28.5611 40.5485 28.2981 40.5971C28.035 40.6457 27.7631 40.6174 27.5166 40.5158C27.2701 40.4142 27.0601 40.2439 26.9132 40.0263C26.7664 39.8088 26.6892 39.5538 26.6915 39.2936Z"></path>
<path fill="white" d="M56.4082 21.56C56.4082 21.2107 56.551 20.8758 56.8051 20.6288C57.0593 20.3819 57.404 20.2432 57.7634 20.2432C58.1228 20.2432 58.4675 20.3819 58.7216 20.6288C58.9758 20.8758 59.1186 21.2107 59.1186 21.56C59.1186 21.9092 58.9758 22.2442 58.7216 22.4911C58.4675 22.7381 58.1228 22.8768 57.7634 22.8768C57.404 22.8768 57.0593 22.7381 56.8051 22.4911C56.551 22.2442 56.4082 21.9092 56.4082 21.56Z"></path>
<path fill="white" d="M68.3411 49.1326C68.6989 49.1353 69.041 49.2754 69.2927 49.5224C69.5444 49.7694 69.6852 50.1032 69.6844 50.4508C69.6794 50.8032 69.5313 51.1394 69.2724 51.3862C69.0136 51.6331 68.6649 51.7706 68.3022 51.7689C67.943 51.765 67.6 51.6231 67.3483 51.3741C67.0966 51.1251 66.9566 50.7894 66.959 50.4404C66.9575 50.2652 66.9924 50.0916 67.0618 49.9299C67.1311 49.7682 67.2335 49.6219 67.3626 49.4997C67.4918 49.3775 67.6451 49.2819 67.8132 49.2189C67.9814 49.1558 68.161 49.1265 68.3411 49.1326Z"></path>
<path fill="white" d="M38.6316 58.2941C38.3634 58.2938 38.1014 58.2161 37.8787 58.0709C37.6561 57.9257 37.4828 57.7196 37.3809 57.4785C37.279 57.2375 37.253 56.9725 37.3063 56.7172C37.3596 56.4618 37.4897 56.2276 37.6802 56.0442C37.8707 55.8607 38.1129 55.7364 38.3762 55.687C38.6395 55.6375 38.912 55.6652 39.1591 55.7664C39.4062 55.8676 39.6168 56.0379 39.7641 56.2556C39.9115 56.4732 39.9891 56.7285 39.9869 56.9891C39.987 57.1615 39.9519 57.3322 39.8836 57.4913C39.8154 57.6504 39.7153 57.7948 39.5892 57.9161C39.4632 58.0374 39.3137 58.1333 39.1493 58.1981C38.985 58.263 38.809 58.2956 38.6316 58.2941Z"></path>
<path fill="white" d="M46.2915 58.2933C46.0234 58.2942 45.7611 58.2177 45.5378 58.0735C45.3145 57.9293 45.1404 57.7239 45.0374 57.4834C44.9345 57.2429 44.9073 56.9782 44.9593 56.7227C45.0113 56.4672 45.1402 56.2324 45.3296 56.0481C45.519 55.8638 45.7605 55.7382 46.0234 55.6874C46.2864 55.6366 46.559 55.6627 46.8066 55.7626C47.0542 55.8625 47.2657 56.0315 47.4144 56.2483C47.563 56.4652 47.642 56.72 47.6414 56.9805C47.6425 57.1531 47.6083 57.3241 47.5408 57.4838C47.4734 57.6435 47.374 57.7886 47.2484 57.9106C47.1229 58.0327 46.9737 58.1294 46.8094 58.1951C46.6452 58.2608 46.4691 58.2942 46.2915 58.2933Z"></path>
<path fill="white" d="M50.0935 62.0044C49.7351 62.0016 49.3925 61.8609 49.1407 61.6131C48.8889 61.3653 48.7485 61.0306 48.7502 60.6823C48.7459 60.4616 48.7988 60.2435 48.904 60.0478C49.0091 59.8522 49.1632 59.6854 49.3521 59.5628C49.5409 59.4401 49.7585 59.3656 49.9847 59.346C50.211 59.3264 50.4386 59.3624 50.6468 59.4507C50.8131 59.5211 50.9631 59.6231 51.088 59.7509C51.2129 59.8786 51.3101 60.0294 51.3739 60.1944C51.4377 60.3593 51.4668 60.5349 51.4595 60.711C51.458 60.8833 51.4214 61.0536 51.3517 61.212C51.282 61.3705 51.1808 61.5139 51.0537 61.6341C50.9268 61.7544 50.7766 61.8491 50.6117 61.9126C50.4469 61.9762 50.2708 62.0074 50.0935 62.0044Z"></path>
<path fill="white" d="M39.9872 64.4275C39.984 64.7763 39.8385 65.1096 39.5826 65.3543C39.3267 65.599 38.9814 65.735 38.6224 65.7326C38.2648 65.7255 37.9243 65.5828 37.6733 65.3351C37.4224 65.0874 37.281 64.7543 37.2793 64.4067C37.2786 64.2314 37.3141 64.0576 37.3838 63.8958C37.4535 63.7341 37.5559 63.5875 37.685 63.4649C37.8139 63.3422 37.9669 63.246 38.1349 63.1818C38.3028 63.1176 38.4824 63.0868 38.6628 63.0912C38.9307 63.0931 39.1918 63.1733 39.4122 63.3214C39.6326 63.4695 39.802 63.6786 39.8983 63.9216C39.9623 64.0828 39.9925 64.2548 39.9872 64.4275Z"></path>
<path fill="white" d="M51.4606 21.5588C51.4643 21.8184 51.3886 22.0733 51.2432 22.2912C51.0979 22.509 50.8893 22.6802 50.6439 22.7829C50.4809 22.8511 50.3056 22.8875 50.1282 22.8899C49.948 22.8913 49.7692 22.858 49.6023 22.792C49.4353 22.726 49.2834 22.6286 49.1553 22.5054C49.0273 22.3821 48.9255 22.2355 48.856 22.074C48.7864 21.9124 48.7504 21.739 48.75 21.5639C48.7523 21.2162 48.8963 20.8835 49.1507 20.6389C49.405 20.3942 49.7488 20.2576 50.1067 20.2589C50.3735 20.2551 50.6354 20.329 50.8586 20.4713C51.0817 20.6136 51.2558 20.8176 51.3583 21.057C51.4264 21.216 51.4612 21.3866 51.4606 21.5588Z"></path>
<path fill="white" d="M22.8652 35.5865C22.8637 35.2381 23.0041 34.9032 23.2558 34.655C23.5074 34.4068 23.85 34.2654 24.2085 34.2618C24.4778 34.2588 24.742 34.3336 24.9675 34.4766C25.193 34.6197 25.3698 34.8245 25.4753 35.0653C25.5543 35.2453 25.591 35.4401 25.5829 35.6356C25.5749 35.8311 25.5222 36.0225 25.4287 36.1958C25.3352 36.3691 25.2032 36.52 25.0423 36.6377C24.8814 36.7553 24.6956 36.8368 24.4984 36.8761C24.3011 36.9155 24.0973 36.9119 23.9017 36.8654C23.7061 36.8189 23.5235 36.7308 23.3673 36.6074C23.211 36.484 23.0849 36.3284 22.998 36.1518C22.9112 35.9753 22.8659 35.7822 22.8652 35.5865Z"></path>
<path fill="white" d="M62.0286 54.1504C62.0349 54.3239 62.006 54.4968 61.9433 54.6593C61.8807 54.8219 61.7856 54.9708 61.6636 55.0975C61.5416 55.2242 61.395 55.3263 61.2323 55.3979C61.0696 55.4694 60.8939 55.5091 60.7154 55.5145C60.5369 55.52 60.3591 55.4911 60.1921 55.4296C60.0251 55.368 59.8722 55.2751 59.7423 55.156C59.6123 55.0369 59.5079 54.8941 59.4349 54.7357C59.3619 54.5773 59.3218 54.4065 59.3169 54.233C59.3071 53.8845 59.4398 53.5464 59.686 53.2927C59.9322 53.039 60.2718 52.8905 60.6305 52.8796C60.9891 52.8686 61.3376 52.9962 61.5997 53.2344C61.8617 53.4726 62.0159 53.802 62.0286 54.1504Z"></path>
<path fill="white" d="M39.9872 60.7084C39.9873 60.8812 39.9518 61.0522 39.8829 61.2114C39.8139 61.3706 39.7128 61.5148 39.5856 61.6355C39.4585 61.7564 39.3078 61.8512 39.1424 61.9146C38.977 61.9779 38.8002 62.0084 38.6224 62.0043C38.2645 62.0016 37.9223 61.8613 37.6706 61.6141C37.4189 61.3669 37.2782 61.0328 37.2793 60.685C37.2828 60.3369 37.4263 60.0039 37.679 59.7572C37.9317 59.5104 38.2737 59.3694 38.6319 59.3643C38.8122 59.3645 38.9906 59.3997 39.1568 59.4677C39.3229 59.5356 39.4734 59.6351 39.5996 59.7602C39.7258 59.8853 39.825 60.0336 39.8916 60.1964C39.9581 60.3592 39.9907 60.5333 39.9872 60.7084Z"></path>
<path fill="white" d="M60.6608 44.3301C60.4603 44.3283 60.2627 44.2831 60.0824 44.198C59.902 44.1129 59.7434 43.9899 59.6179 43.8379C59.4925 43.6859 59.4033 43.5087 59.357 43.3191C59.3106 43.1296 59.3082 42.9324 59.3499 42.7418C59.4055 42.4869 59.5377 42.2538 59.7299 42.0721C59.922 41.8903 60.1654 41.7681 60.4291 41.721C60.6263 41.6857 60.8291 41.6934 61.0228 41.7436C61.2165 41.7937 61.3964 41.885 61.5494 42.0109C61.7024 42.1368 61.8247 42.2942 61.9075 42.4716C61.9903 42.649 62.0315 42.8421 62.0282 43.0368C62.0265 43.2092 61.9898 43.3796 61.9202 43.5382C61.8503 43.6967 61.7489 43.8401 61.6217 43.9604C61.4946 44.0806 61.3442 44.1752 61.1793 44.2387C61.0144 44.3022 60.8382 44.3333 60.6608 44.3301Z"></path>
<path fill="white" d="M51.4592 64.3911C51.4614 64.6519 51.384 64.9075 51.2367 65.1255C51.0893 65.3435 50.8788 65.5141 50.6316 65.6158C50.4467 65.6918 50.2468 65.727 50.0462 65.7187C49.8456 65.7105 49.6494 65.6591 49.4718 65.5682C49.2942 65.4773 49.1396 65.3492 49.0191 65.1931C48.8987 65.0371 48.8154 64.857 48.7753 64.6659C48.7353 64.4747 48.7394 64.2773 48.7874 64.0879C48.8354 63.8985 48.9261 63.7219 49.053 63.5707C49.1799 63.4195 49.3397 63.2976 49.521 63.2138C49.7022 63.13 49.9004 63.0863 50.1011 63.086C50.2788 63.0842 50.455 63.1166 50.6197 63.1813C50.7843 63.246 50.9342 63.3418 51.0605 63.4631C51.1867 63.5846 51.287 63.7291 51.3554 63.8884C51.4238 64.0476 51.4591 64.2185 51.4592 64.3911Z"></path>
<path fill="white" d="M39.985 68.1336C39.9849 68.306 39.9497 68.4766 39.8814 68.6357C39.8132 68.7948 39.7132 68.9392 39.5873 69.0606C39.4613 69.182 39.3117 69.2778 39.1473 69.3426C38.983 69.4076 38.807 69.4402 38.6296 69.4386C38.273 69.4317 37.9335 69.2883 37.6851 69.0395C37.4367 68.7908 37.2993 68.4568 37.3028 68.1102C37.3063 67.7636 37.4505 67.4324 37.704 67.1885C37.9574 66.9446 38.2997 66.8077 38.6564 66.8076C38.8338 66.8082 39.0093 66.8431 39.1726 66.9103C39.336 66.9776 39.4839 67.0758 39.6077 67.1992C39.7314 67.3227 39.8285 67.469 39.8933 67.6294C39.9581 67.7899 39.9892 67.9613 39.985 68.1336ZM46.2521 73.1476C46.0745 73.1465 45.899 73.1109 45.7358 73.0427C45.5727 72.9746 45.4253 72.8753 45.3023 72.7508C45.1793 72.6264 45.0833 72.4792 45.0199 72.318C44.9564 72.1569 44.9269 71.985 44.933 71.8126C44.9372 71.6398 44.9764 71.4695 45.0483 71.3115C45.1203 71.1534 45.2236 71.0107 45.3524 70.8915C45.4811 70.7722 45.6327 70.6788 45.7986 70.6165C45.9645 70.5542 46.1414 70.5242 46.3192 70.5283C46.6783 70.5368 47.0193 70.6833 47.2672 70.9358C47.39 71.0609 47.4861 71.2082 47.5503 71.3694C47.6144 71.5306 47.6452 71.7025 47.641 71.8753C47.6366 72.0477 47.5971 72.2175 47.5247 72.375C47.4524 72.5325 47.3487 72.6746 47.2196 72.7929C47.0904 72.9111 46.9384 73.0034 46.7723 73.0642C46.6063 73.1251 46.4295 73.1535 46.2521 73.1476Z"></path>
<path fill="white" d="M29.3994 42.9956C29.4015 43.2559 29.3242 43.5109 29.1771 43.7284C29.03 43.9459 28.8198 44.1161 28.5732 44.2175C28.3265 44.3188 28.0544 44.3468 27.7914 44.298C27.5284 44.2491 27.2861 44.1256 27.0952 43.9431C26.9526 43.8066 26.8428 43.641 26.774 43.4583C26.7051 43.2756 26.6788 43.0804 26.697 42.8866C26.7152 42.6929 26.7774 42.5054 26.8791 42.3378C26.9808 42.1703 27.1195 42.0267 27.2852 41.9175C27.5443 41.7466 27.8564 41.6682 28.1683 41.6959C28.4802 41.7235 28.7726 41.8553 28.9956 42.0689C29.2514 42.3136 29.3965 42.6469 29.3994 42.9956Z"></path>
<path fill="white" d="M51.4568 17.8658C51.4568 18.0383 51.4215 18.2091 51.3532 18.3683C51.2848 18.5274 51.1847 18.6719 51.0585 18.7932C50.9324 18.9146 50.7827 19.0104 50.6182 19.0752C50.4537 19.14 50.2776 19.1725 50.1001 19.1708C49.8985 19.1711 49.6994 19.1279 49.5172 19.0443C49.3349 18.9607 49.1741 18.8387 49.0463 18.6872C48.9185 18.5358 48.827 18.3586 48.7784 18.1685C48.7298 17.9784 48.7253 17.7802 48.7652 17.5883C48.8052 17.3963 48.8886 17.2153 49.0094 17.0585C49.1302 16.9017 49.2854 16.7729 49.4637 16.6816C49.6421 16.5903 49.8391 16.5387 50.0405 16.5305C50.2419 16.5223 50.4427 16.5577 50.6282 16.6342C50.8765 16.7365 51.0878 16.9083 51.2353 17.1276C51.3828 17.3469 51.4599 17.6038 51.4568 17.8658Z"></path>
<path fill="white" d="M33.22 35.5857C33.2211 35.7579 33.1873 35.9285 33.1204 36.0879C33.0534 36.2473 32.9548 36.3922 32.83 36.5144C32.7051 36.6366 32.5566 36.7335 32.3931 36.7997C32.2295 36.8658 32.054 36.8999 31.8769 36.8999C31.5203 36.8941 31.1805 36.7521 30.9309 36.5047C30.6813 36.2573 30.5419 35.9244 30.543 35.5779C30.544 35.2314 30.6854 34.8993 30.9366 34.6534C31.1877 34.4074 31.5284 34.2674 31.885 34.2637C32.0622 34.2647 32.2374 34.2997 32.4006 34.3668C32.5637 34.4339 32.7116 34.5318 32.8357 34.6547C32.9598 34.7776 33.0576 34.9231 33.1235 35.0829C33.1895 35.2427 33.2223 35.4136 33.22 35.5857Z"></path>
<path fill="white" d="M57.768 26.5968C57.5902 26.5968 57.4141 26.5628 57.2499 26.4967C57.0856 26.4306 56.9364 26.3337 56.8106 26.2116C56.6849 26.0894 56.5852 25.9444 56.5171 25.7848C56.4491 25.6252 56.4141 25.4541 56.4141 25.2814C56.4141 25.1086 56.4491 24.9376 56.5171 24.778C56.5851 24.6184 56.6848 24.4733 56.8105 24.3512C56.9362 24.229 57.0855 24.1321 57.2497 24.066C57.414 23.9999 57.59 23.9658 57.7678 23.9658C58.1269 23.9658 58.4712 24.1044 58.7251 24.3511C58.9791 24.5978 59.1217 24.9324 59.1217 25.2813C59.1217 25.6301 58.9791 25.9648 58.7252 26.2115C58.4714 26.4582 58.127 26.5968 57.768 26.5968Z"></path>
<path fill="white" d="M46.2996 26.5968C45.9406 26.5988 45.5954 26.4622 45.34 26.217C45.0846 25.9718 44.9398 25.6381 44.9375 25.2892C44.9359 25.029 45.0138 24.7742 45.1612 24.557C45.3086 24.3398 45.519 24.17 45.7657 24.069C46.0125 23.968 46.2845 23.9404 46.5474 23.9896C46.8104 24.0388 47.0524 24.1627 47.2428 24.3455C47.4333 24.5284 47.5637 24.762 47.6175 25.0169C47.6713 25.2717 47.6462 25.5364 47.5452 25.7773C47.4443 26.0183 47.272 26.2248 47.0503 26.3706C46.8286 26.5165 46.5674 26.5952 46.2996 26.5968Z"></path>
<path fill="white" d="M51.4635 25.2995C51.4636 25.5593 51.3835 25.8131 51.2334 26.0281C51.0833 26.2431 50.8702 26.4093 50.6217 26.5052C50.4568 26.5689 50.2804 26.6 50.1029 26.5967C49.9024 26.5957 49.7046 26.5514 49.5238 26.467C49.343 26.3827 49.1838 26.2604 49.0576 26.1089C48.9314 25.9575 48.8414 25.7807 48.7941 25.5913C48.7468 25.4019 48.7433 25.2047 48.784 25.0139C48.8525 24.6936 49.0414 24.4095 49.3138 24.2171C49.5862 24.0248 49.9226 23.938 50.2573 23.9737C50.592 24.0093 50.9011 24.1649 51.1241 24.4101C51.3471 24.6552 51.4682 24.9723 51.4635 25.2995Z"></path>
<path fill="white" d="M46.2768 69.4391C46.0994 69.4391 45.9237 69.4049 45.76 69.3385C45.5133 69.2388 45.3028 69.0697 45.1556 68.853C45.0084 68.6364 44.9311 68.3819 44.9337 68.1222C44.9357 67.7734 45.0802 67.4395 45.3354 67.1941C45.4618 67.0726 45.6116 66.9764 45.7762 66.9112C45.9409 66.8459 46.1171 66.8129 46.2949 66.8139C46.4728 66.8147 46.6487 66.8496 46.8126 66.9165C46.9765 66.9835 47.1253 67.0812 47.2503 67.204C47.3754 67.3269 47.4743 67.4725 47.5414 67.6325C47.6085 67.7925 47.6425 67.9638 47.6415 68.1366C47.6401 68.3092 47.6037 68.4799 47.5343 68.6388C47.465 68.7978 47.364 68.9418 47.2371 69.0628C47.1104 69.1838 46.9604 69.2794 46.7956 69.3439C46.6308 69.4085 46.4545 69.4408 46.2768 69.4391ZM73.4993 54.1761C73.4953 54.4365 73.4118 54.6898 73.2594 54.9041C73.1071 55.1183 72.8927 55.2837 72.6435 55.3795C72.4573 55.4511 72.2569 55.4817 72.057 55.469C71.8571 55.4563 71.6625 55.4007 71.4874 55.3061C71.3123 55.2115 71.161 55.0803 71.0444 54.922C70.9278 54.7636 70.8488 54.5822 70.8131 54.3906C70.7774 54.199 70.7859 54.0021 70.838 53.8142C70.8902 53.6262 70.9846 53.4518 71.1144 53.3035C71.2443 53.1553 71.4064 53.0369 71.5891 52.957C71.7718 52.877 71.9704 52.8374 72.1708 52.8411C72.3485 52.843 72.5241 52.8791 72.6874 52.9474C72.8507 53.0157 72.9984 53.1148 73.122 53.2389C73.2456 53.3631 73.3426 53.5099 73.4074 53.6708C73.4722 53.8316 73.5034 54.0034 73.4993 54.1761Z"></path>
</g>
<defs>
<clipPath id="clip0_3829_21170">
<rect transform="translate(18.959 16.5293)" fill="white" height="57.8529" width="124.659"></rect>
</clipPath>
</defs>
</svg>
