<svg width="100%" height="100%" viewBox="0 0 100% 100%" fill="none" xmlns="http://www.w3.org/2000/svg">
<g clip-path="url(#clip0_2933_1210)">
<path d="M7.30524 26.2116C7.30524 32.2542 8.50011 32.9631 10.0793 33.5454C10.4637 33.672 11.1071 33.7649 11.0653 33.9337C11.0235 34.1024 10.7645 34.1109 10.2966 34.1109C9.22705 34.1109 7.55591 34.018 5.93491 34.018C3.11069 34.018 1.39778 34.1109 0.921505 34.1109C0.319896 34.1109 0.0859375 34.018 0.0859375 33.8915C0.0859375 33.7649 0.420164 33.5876 1.02177 33.3345C2.86002 32.6002 3.46163 31.52 3.46163 26.1694V9.3835C3.46163 6.00775 3.16083 5.3326 1.23902 4.85156C0.85466 4.76716 0.637413 4.76716 0.637413 4.64057C0.637413 4.51398 0.938217 4.33676 1.40613 4.15953L7.30524 2.23535V26.2116Z" fill="url(#paint0_linear_2933_1210)"/>
<path d="M42.5133 18.0252V17.9745C42.5133 28.0511 35.7035 35.1909 26.3117 35.1909C16.9199 35.1909 10.1602 28.0511 10.1602 17.9745C10.1602 7.89792 16.9115 0.808838 26.3117 0.808838C35.7118 0.808838 42.5133 7.94855 42.5133 18.0252ZM15.6665 18.0252C15.6665 24.2619 16.5021 33.8574 26.3618 33.8574C36.2215 33.8574 37.0237 24.2619 37.0237 18.0252C37.0237 11.7885 36.1881 2.14226 26.3618 2.14226C16.5355 2.14226 15.6665 11.7885 15.6665 18.0252Z" fill="url(#paint1_linear_2933_1210)"/>
<path d="M23.7835 21.198C23.7835 21.8225 23.7835 22.4386 23.867 23.0546C23.8262 23.6566 23.9116 24.2605 24.1177 24.8269C24.5104 25.4852 25.2123 25.3755 25.8724 25.3755C27.9947 25.3755 30.0502 25.2489 31.972 24.0336C32.496 23.7656 32.9465 23.3714 33.2839 22.8858C33.3071 22.8522 33.3368 22.8236 33.3713 22.8018C33.4058 22.7801 33.4442 22.7656 33.4844 22.7593C33.5002 22.7591 33.5158 22.7624 33.5302 22.7689C33.5446 22.7754 33.5574 22.7851 33.5678 22.7971C33.5781 22.8092 33.5857 22.8233 33.5901 22.8387C33.5945 22.854 33.5955 22.8701 33.593 22.8858C33.5965 22.9888 33.5824 23.0916 33.5512 23.1897L32.7157 26.2278H19.3633C19.1461 26.2278 19.0625 26.2278 19.0625 26.1519C19.0625 26.0759 19.1711 25.924 19.4552 25.8481C20.483 25.5189 20.5498 22.6327 20.5498 21.4427V12.632C20.5498 11.6699 20.508 10.8091 19.7142 10.3534C19.6307 10.3027 19.5638 10.2774 19.5638 10.2015C19.5638 10.1255 19.8229 10.0496 20.0234 10.0496H31.6629L32.0639 11.518C32.1642 11.8893 32.2561 12.2691 32.348 12.6404C32.3982 12.8599 32.5903 13.3156 32.348 13.4844C32.3151 13.493 32.2806 13.493 32.2478 13.4844C32.1057 13.4844 32.0639 13.324 31.9887 13.2228C31.9135 13.1215 31.8383 13.0033 31.7548 12.9021C31.5916 12.7022 31.4128 12.5159 31.22 12.3451C30.8157 12.0126 30.3579 11.7528 29.8664 11.5771C28.8563 11.178 27.7748 10.9969 26.6912 11.0454H23.7835V17.2399H24.853C28.0031 17.2399 29.0308 17.1133 29.5572 16.531C29.8298 16.2219 30.0373 15.8602 30.1672 15.4676C30.2173 15.3917 30.2591 15.341 30.326 15.341C30.3928 15.341 30.4346 15.493 30.4346 15.7461V19.4595C30.4346 19.6114 30.4346 19.8646 30.3427 19.8646C30.2508 19.8646 30.2591 19.8139 30.2173 19.738C30.0727 19.3181 29.8117 18.949 29.4653 18.6746C28.4209 17.8307 26.123 17.8307 24.853 17.8307H23.7835V21.198Z" fill="url(#paint2_linear_2933_1210)"/>
</g>
<defs>
<linearGradient id="paint0_linear_2933_1210" x1="0.0859375" y1="18.3341" x2="11.0672" y2="18.3341" gradientUnits="userSpaceOnUse">
<stop stop-color="#C78B58"/>
<stop offset="1" stop-color="#956A68"/>
</linearGradient>
<linearGradient id="paint1_linear_2933_1210" x1="10.1602" y1="18.1735" x2="42.5133" y2="18.1735" gradientUnits="userSpaceOnUse">
<stop stop-color="#C78B58"/>
<stop offset="1" stop-color="#956A68"/>
</linearGradient>
<linearGradient id="paint2_linear_2933_1210" x1="19.0625" y1="18.2204" x2="33.5943" y2="18.2204" gradientUnits="userSpaceOnUse">
<stop stop-color="#C78B58"/>
<stop offset="1" stop-color="#956A68"/>
</linearGradient>
<clipPath id="clip0_2933_1210">
<rect width="100%" height="100%" fill="white" transform="translate(0.0390625 0.808838)"/>
</clipPath>
</defs>
</svg>
